<?xml version="1.0" standalone="no"?><!DOCTYPE svg PUBLIC "-//W3C//DTD SVG 1.1//EN" "http://www.w3.org/Graphics/SVG/1.1/DTD/svg11.dtd"><svg t="1659081095804" class="icon" viewBox="0 0 1024 1024" version="1.1" xmlns="http://www.w3.org/2000/svg" p-id="4889" xmlns:xlink="http://www.w3.org/1999/xlink" width="200" height="200"><defs><style type="text/css">@font-face { font-family: feedback-iconfont; src: url("//at.alicdn.com/t/font_1031158_u69w8yhxdu.woff2?t=1630033759944") format("woff2"), url("//at.alicdn.com/t/font_1031158_u69w8yhxdu.woff?t=1630033759944") format("woff"), url("//at.alicdn.com/t/font_1031158_u69w8yhxdu.ttf?t=1630033759944") format("truetype"); }
</style></defs><path d="M899.680679 186.625487L431.098953 85.079266l-21.552338 65.060615L268.043813 568.67498a40.360183 40.360183 0 0 1-31.803824 32.288146 35.436241 35.436241 0 0 1-34.386876-16.144073 42.620353 42.620353 0 0 1-2.744493-40.360183l45.526287-135.368054L371.123721 33.579672A41.570989 41.570989 0 0 1 389.931566 5.892587a35.678402 35.678402 0 0 1 31.561663-2.905933l526.942551 113.008512a37.53497 37.53497 0 0 1 29.543654 19.69577 44.07332 44.07332 0 0 1 2.26017 37.53497c-59.975232 209.872952-126.488814 420.472388-201.800915 625.502118a674.49938 674.49938 0 0 1-59.975232 130.20195 191.226548 191.226548 0 0 1-156.43607 94.362108 206.482697 206.482697 0 0 1-110.344741-24.216109l-296.728066-144.489456a196.06977 196.06977 0 0 1-74.343457-55.939214 206.967019 206.967019 0 0 1-39.55298-143.843692 481.174103 481.174103 0 0 1 6.61907-55.293451l10.170767 3.874577c132.462121 57.957223 264.359199 116.479488 396.90204 173.790949a13.641742 13.641742 0 0 1 8.959961 14.287505 222.465329 222.465329 0 0 0 17.354879 100.900457 85.240707 85.240707 0 0 0 90.48753 50.127348 129.152586 129.152586 0 0 0 92.344099-74.182017 912.785901 912.785901 0 0 0 59.975232-148.364033c56.504256-159.422723 106.712324-321.509219 155.871027-484.322197 5.408265-16.144073 10.170766-32.288146 15.013988-49.481585z m0 0" fill="currentColor" p-id="4890"></path><path d="M644.20072 692.822903a38.422894 38.422894 0 0 1-51.418874 36.485606L426.175011 674.015058a40.360183 40.360183 0 0 1-26.718442-41.005946 38.422894 38.422894 0 0 1 33.821834-33.821834 53.356162 53.356162 0 0 1 20.180091 0l160.79497 53.356162a38.422894 38.422894 0 0 1 29.947256 38.422895z m65.060615-158.131197a36.485606 36.485606 0 0 1-10.412927 27.364204 37.131368 37.131368 0 0 1-27.364205 11.05869 44.961244 44.961244 0 0 1-16.144073 0L493.253635 517.821149a39.068657 39.068657 0 0 1-28.65573-48.43222 37.131368 37.131368 0 0 1 43.588998-28.009967c19.534329 5.246824 37.777131 12.350216 56.504256 18.242803l110.667622 36.485606a38.422894 38.422894 0 0 1 30.593019 37.777131z m69.015913-169.512769a37.131368 37.131368 0 0 1-41.651709 37.777131c-24.21611-4.520341-47.544296-11.704453-70.953202-18.242803l-104.129272-28.009967a37.777131 37.777131 0 0 1-30.593019-34.467596 37.131368 37.131368 0 0 1 18.888566-37.131369 42.943235 42.943235 0 0 1 35.759122 0l117.771014 31.238782 45.526287 12.350216a39.71442 39.71442 0 0 1 29.301493 37.777132z m-386.569834 39.71442a41.651709 41.651709 0 0 1 41.651709 41.651709 40.360183 40.360183 0 0 1-39.068657 39.068657 41.651709 41.651709 0 0 1-43.588998-39.068657 39.068657 39.068657 0 0 1 39.068657-39.068657z m65.060615-83.303418a41.005946 41.005946 0 0 1-42.297472-39.71442 36.485606 36.485606 0 0 1 11.704454-27.364204 38.422894 38.422894 0 0 1 27.364204-11.058691 40.360183 40.360183 0 0 1 42.943235 40.360184 36.485606 36.485606 0 0 1-39.714421 37.131368z m-127.538178 233.68546a40.360183 40.360183 0 0 1 42.297472 39.71442 38.422894 38.422894 0 0 1-11.05869 27.364204 41.005946 41.005946 0 0 1-26.718442 11.058691 41.651709 41.651709 0 0 1-44.880523-39.714421 39.068657 39.068657 0 0 1 40.360183-38.422894z m0 0" fill="currentColor" p-id="4891"></path></svg>