<?xml version="1.0" standalone="no"?><!DOCTYPE svg PUBLIC "-//W3C//DTD SVG 1.1//EN" "http://www.w3.org/Graphics/SVG/1.1/DTD/svg11.dtd"><svg class="icon" width="200px" height="200.00px" viewBox="0 0 1024 1024" version="1.1" xmlns="http://www.w3.org/2000/svg"><path d="M512 512m-398.222222 0a398.222222 398.222222 0 1 0 796.444444 0 398.222222 398.222222 0 1 0-796.444444 0Z" fill="#17B6FC" /><path d="M570.064593 493.700741a61.857185 61.857185 0 1 0-61.876149 61.857185 61.933037 61.933037 0 0 0 61.876149-61.857185z m-100.010667 0a38.153481 38.153481 0 1 1 11.169185 26.984296 38.191407 38.191407 0 0 1-11.093333-26.984296z" fill="#FFFFFF" /><path d="M600.557037 562.138074a127.051852 127.051852 0 0 0 36.750222-90.81363v-1.896296a129.042963 129.042963 0 0 0-258.066963 2.010074v2.161778a128.246519 128.246519 0 0 0 89.372445 120.850963l-18.962963 50.555259H412.823704a11.851852 11.851852 0 1 0 0 23.722667h190.957037a11.851852 11.851852 0 1 0 0-23.722667h-36.901926l-18.962963-50.49837a127.374222 127.374222 0 0 0 52.641185-32.369778z m-197.594074-88.727704v-2.199703a105.453037 105.453037 0 0 1 104.485926-106.192593h0.853333a105.434074 105.434074 0 0 1 105.301334 104.296296v1.896297a104.296296 104.296296 0 0 1-103.442963 105.206518h-2.93926a104.410074 104.410074 0 0 1-104.25837-103.006815z m138.581333 171.52H475.022222l17.066667-45.511111a127.469037 127.469037 0 0 0 15.075555 0.967111h3.109926a129.042963 129.042963 0 0 0 14.260149-0.948148z" fill="#FFFFFF" /><path d="M508.283259 417.962667a18.413037 18.413037 0 1 0 0-36.826074 20.859259 20.859259 0 0 0-9.197037 2.503111 18.62163 18.62163 0 0 0-9.216 15.909926 18.413037 18.413037 0 0 0 18.413037 18.413037z" fill="#FFFFFF" /></svg>
