<?xml version="1.0" standalone="no"?><!DOCTYPE svg PUBLIC "-//W3C//DTD SVG 1.1//EN" "http://www.w3.org/Graphics/SVG/1.1/DTD/svg11.dtd"><svg t="1659081004664" class="icon" viewBox="0 0 1103 1024" version="1.1" xmlns="http://www.w3.org/2000/svg" p-id="4459" xmlns:xlink="http://www.w3.org/1999/xlink" width="215.4296875" height="200"><defs><style type="text/css">@font-face { font-family: feedback-iconfont; src: url("//at.alicdn.com/t/font_1031158_u69w8yhxdu.woff2?t=1630033759944") format("woff2"), url("//at.alicdn.com/t/font_1031158_u69w8yhxdu.woff?t=1630033759944") format("woff"), url("//at.alicdn.com/t/font_1031158_u69w8yhxdu.ttf?t=1630033759944") format("truetype"); }
</style></defs><path d="M0 472.225468h475.314698v79.219116H0z" fill="currentColor" p-id="4460"></path><path d="M1023.470035 236.379291H237.184869a74.336825 74.336825 0 0 1-78.746636-78.746636V78.886018a74.336825 74.336825 0 0 1 78.746636-78.746636h786.442659a74.336825 74.336825 0 0 1 78.746637 78.746636v78.746637a74.336825 74.336825 0 0 1-78.90413 78.746636zM237.184869 78.886018v78.746637h786.442659V78.886018z m0-39.373318zM1023.627528 1023.845657H551.777682a74.336825 74.336825 0 0 1-78.746636-78.746637v-78.746636a74.336825 74.336825 0 0 1 78.746636-78.746637h471.849846a74.336825 74.336825 0 0 1 78.746637 78.746637v78.746636a74.336825 74.336825 0 0 1-78.90413 78.746637z m-471.849846-157.493273v78.746636h471.849846v-78.746636z m0-39.373319zM1023.627528 630.112474H551.777682a74.336825 74.336825 0 0 1-78.746636-78.746637V472.619201a74.336825 74.336825 0 0 1 78.746636-78.746637h471.849846a74.336825 74.336825 0 0 1 78.746637 78.746637v78.746636a74.336825 74.336825 0 0 1-78.90413 78.746637zM551.777682 472.619201v78.746636h471.849846V472.619201z m0-39.373318z" fill="currentColor" p-id="4461"></path><path d="M0 79.358498h158.438233v78.746636H0z m0 786.363912h475.314698v78.746637H0z" fill="currentColor" p-id="4462"></path><path d="M0 79.358498h79.219116V944.311554H0z" fill="currentColor" p-id="4463"></path></svg>