<?xml version="1.0" standalone="no"?><!DOCTYPE svg PUBLIC "-//W3C//DTD SVG 1.1//EN" "http://www.w3.org/Graphics/SVG/1.1/DTD/svg11.dtd"><svg t="1659575492598" class="icon" viewBox="0 0 1024 1024" version="1.1" xmlns="http://www.w3.org/2000/svg" p-id="2356" xmlns:xlink="http://www.w3.org/1999/xlink" width="200" height="200"><defs><style type="text/css">@font-face { font-family: feedback-iconfont; src: url("//at.alicdn.com/t/font_1031158_u69w8yhxdu.woff2?t=1630033759944") format("woff2"), url("//at.alicdn.com/t/font_1031158_u69w8yhxdu.woff?t=1630033759944") format("woff"), url("//at.alicdn.com/t/font_1031158_u69w8yhxdu.ttf?t=1630033759944") format("truetype"); }
</style></defs><path d="M512 768c-183.466667 0-328.533333-85.333333-426.666667-256 98.133333-170.666667 243.2-256 426.666667-256s328.533333 85.333333 426.666667 256c-98.133333 170.666667-243.2 256-426.666667 256z m8.533333-426.666667c-128 0-256 55.466667-328.533333 170.666667 72.533333 115.2 200.533333 170.666667 328.533333 170.666667s238.933333-55.466667 311.466667-170.666667c-72.533333-115.2-183.466667-170.666667-311.466667-170.666667z m-8.533333 298.666667c-72.533333 0-128-55.466667-128-128s55.466667-128 128-128 128 55.466667 128 128-55.466667 128-128 128z m0-85.333333c25.6 0 42.666667-17.066667 42.666667-42.666667s-17.066667-42.666667-42.666667-42.666667-42.666667 17.066667-42.666667 42.666667 17.066667 42.666667 42.666667 42.666667z" fill="#116052" p-id="2357"></path></svg>