<?xml version="1.0" standalone="no"?><!DOCTYPE svg PUBLIC "-//W3C//DTD SVG 1.1//EN" "http://www.w3.org/Graphics/SVG/1.1/DTD/svg11.dtd"><svg t="1659081071522" class="icon" viewBox="0 0 1024 1024" version="1.1" xmlns="http://www.w3.org/2000/svg" p-id="4604" xmlns:xlink="http://www.w3.org/1999/xlink" width="200" height="200"><defs><style type="text/css">@font-face { font-family: feedback-iconfont; src: url("//at.alicdn.com/t/font_1031158_u69w8yhxdu.woff2?t=1630033759944") format("woff2"), url("//at.alicdn.com/t/font_1031158_u69w8yhxdu.woff?t=1630033759944") format("woff"), url("//at.alicdn.com/t/font_1031158_u69w8yhxdu.ttf?t=1630033759944") format("truetype"); }
</style></defs><path d="M866.711153 131.813798H751.905588a33.941866 33.941866 0 1 0 0 67.809135h114.65637a23.34902 23.34902 0 0 1 25.064763 20.9619v714.345742a23.274423 23.274423 0 0 1-25.064763 20.9619H157.139652a23.34902 23.34902 0 0 1-24.990166-20.9619V220.734028a23.274423 23.274423 0 0 1 24.990166-20.9619h118.759233a33.941866 33.941866 0 1 0 0-67.809135H157.139652A91.232753 91.232753 0 0 0 63.892766 220.808625v714.345742a91.232753 91.232753 0 0 0 93.246886 88.845633h709.496904a91.232753 91.232753 0 0 0 93.246885-88.845633V220.734028a91.381948 91.381948 0 0 0-93.172288-88.92023z" fill="currentColor" p-id="4605"></path><path d="M718.784294 749.928754h-247.663729a33.941866 33.941866 0 1 0 0 67.809135H718.858891a33.941866 33.941866 0 1 0 0-67.809135z m0-176.572303h-247.663729a33.941866 33.941866 0 1 0 0 67.809135H718.858891a33.941866 33.941866 0 1 0 0-67.809135zM377.426095 206.112916a36.776572 36.776572 0 0 0 8.653311 1.118963 33.867269 33.867269 0 0 0 24.467982-10.369054l67.137758-67.137758V430.427624a33.867269 33.867269 0 0 0 17.08283 29.316821 34.240256 34.240256 0 0 0 34.091061 0 34.091061 34.091061 0 0 0 17.082829-29.316821V130.023457l67.137758 67.137758a34.314854 34.314854 0 0 0 24.54258 10.369054 31.629344 31.629344 0 0 0 8.653311-1.118963 33.941866 33.941866 0 0 0 14.919502-57.216289L511.627012 0l-149.195017 148.82203a33.941866 33.941866 0 0 0 14.919502 57.365484z m-22.379253 367.318132h-50.054928a33.792671 33.792671 0 1 0 0 67.585343h50.054928a33.792671 33.792671 0 1 0 0-67.585343z m0 176.572303h-50.054928a33.792671 33.792671 0 1 0 0 67.585343h50.054928a33.792671 33.792671 0 1 0 0-67.585343z" fill="currentColor" p-id="4606"></path></svg>