<?xml version="1.0" standalone="no"?><!DOCTYPE svg PUBLIC "-//W3C//DTD SVG 1.1//EN" "http://www.w3.org/Graphics/SVG/1.1/DTD/svg11.dtd"><svg t="1659080984581" class="icon" viewBox="0 0 1024 1024" version="1.1" xmlns="http://www.w3.org/2000/svg" p-id="4317" xmlns:xlink="http://www.w3.org/1999/xlink" width="200" height="200"><defs><style type="text/css">@font-face { font-family: feedback-iconfont; src: url("//at.alicdn.com/t/font_1031158_u69w8yhxdu.woff2?t=1630033759944") format("woff2"), url("//at.alicdn.com/t/font_1031158_u69w8yhxdu.woff?t=1630033759944") format("woff"), url("//at.alicdn.com/t/font_1031158_u69w8yhxdu.ttf?t=1630033759944") format("truetype"); }
</style></defs><path d="M876.5617 0a73.122131 73.122131 0 0 1 72.977048 67.681496V768.072542a73.122131 73.122131 0 0 1-67.681497 72.977047H226.804829a36.706149 36.706149 0 0 1-8.777558-1.088127v1.523378a66.375744 66.375744 0 0 0-73.122131 54.841598 64.489657 64.489657 0 0 0 66.593369 54.623973l2.248796-0.435251H913.485475a36.270898 36.270898 0 0 1 4.279966 72.541797H218.607606v0.870501A137.829413 137.829413 0 0 1 72.000635 896.036271V146.316804A146.316804 146.316804 0 0 1 210.990717 0h7.25418z m0 73.122131H218.244897a73.122131 73.122131 0 0 0-72.977048 67.681496v644.316237a162.058373 162.058373 0 0 1 65.287617-16.829697h7.689431v0.652876a36.270898 36.270898 0 0 1 4.497591-0.797959h653.819212zM547.439569 365.683196a36.270898 36.270898 0 0 1 4.279966 72.541797H291.439569a36.270898 36.270898 0 0 1-4.279966-72.541797h4.279966zM730.317438 182.805327a36.270898 36.270898 0 0 1 4.279966 72.541797H291.439569a36.270898 36.270898 0 0 1-4.279966-72.541797h4.279966z" fill="currentColor" p-id="4318"></path></svg>