<?xml version="1.0" standalone="no"?><!DOCTYPE svg PUBLIC "-//W3C//DTD SVG 1.1//EN" "http://www.w3.org/Graphics/SVG/1.1/DTD/svg11.dtd"><svg t="1659081106912" class="icon" viewBox="0 0 1024 1024" version="1.1" xmlns="http://www.w3.org/2000/svg" p-id="5032" xmlns:xlink="http://www.w3.org/1999/xlink" width="200" height="200"><defs><style type="text/css">@font-face { font-family: feedback-iconfont; src: url("//at.alicdn.com/t/font_1031158_u69w8yhxdu.woff2?t=1630033759944") format("woff2"), url("//at.alicdn.com/t/font_1031158_u69w8yhxdu.woff?t=1630033759944") format("woff"), url("//at.alicdn.com/t/font_1031158_u69w8yhxdu.ttf?t=1630033759944") format("truetype"); }
</style></defs><path d="M234.68248 81.576201h98.686614v853.035736h-98.686614z" fill="currentColor" p-id="5033"></path><path d="M501.633322 90.095909h147.674934v131.629484a73.553477 73.553477 0 0 1-143.060092 0z" fill="currentColor" p-id="5034"></path><path d="M881.257298 1013.277238H142.385646A112.318147 112.318147 0 0 1 29.286527 901.669067V126.659655A112.318147 112.318147 0 0 1 142.385646 15.051484h738.871652a112.318147 112.318147 0 0 1 113.596103 111.608171v771.672526a112.318147 112.318147 0 0 1-113.09912 115.229047zM142.030659 76.109389a52.254207 52.254207 0 0 0-36.492748 14.199513 50.834256 50.834256 0 0 0-15.051484 36.492748v771.530531a47.923356 47.923356 0 0 0 15.051484 35.498782 52.964183 52.964183 0 0 0 36.492748 15.051484h739.226639a51.544232 51.544232 0 0 0 51.544232-50.834256V126.659655a50.834256 50.834256 0 0 0-51.544232-50.834256z m0 0" fill="currentColor" p-id="5035"></path><path d="M881.612286 1023.99787H142.385646A126.659655 126.659655 0 0 1 15.016016 898.048191V126.659655A127.795616 127.795616 0 0 1 142.385646 0h739.22664A127.795616 127.795616 0 0 1 1008.981916 126.659655v771.388536a126.659655 126.659655 0 0 1-127.36963 125.949679z m0-994.675876H142.385646A98.047636 98.047636 0 0 0 43.628035 126.659655v771.388536a98.047636 98.047636 0 0 0 98.757611 97.337661h739.22664a98.047636 98.047636 0 0 0 98.757612-97.337661V126.659655A98.047636 98.047636 0 0 0 881.612286 29.321994z m0 933.830963H142.385646a62.97484 62.97484 0 0 1-46.503404-21.299269 63.897808 63.897808 0 0 1-19.311338-45.793429V126.659655a66.524718 66.524718 0 0 1 19.311338-43.663502 65.104766 65.104766 0 0 1 46.503404-18.601362h739.22664a65.104766 65.104766 0 0 1 65.814742 65.104766v768.548634a65.814742 65.814742 0 0 1-65.814742 65.175764zM142.385646 89.882916a36.492748 36.492748 0 0 0-26.482091 10.720633 34.362821 34.362821 0 0 0-10.720632 25.772115v771.388537a36.634743 36.634743 0 0 0 37.202723 36.492748h739.22664a36.492748 36.492748 0 0 0 26.482092-10.720632 39.332651 39.332651 0 0 0 10.720632-25.772116V126.659655a36.492748 36.492748 0 0 0-37.202724-36.492748z" fill="currentColor" p-id="5036"></path></svg>