<?xml version="1.0" standalone="no"?><!DOCTYPE svg PUBLIC "-//W3C//DTD SVG 1.1//EN" "http://www.w3.org/Graphics/SVG/1.1/DTD/svg11.dtd"><svg t="1659081804137" class="icon" viewBox="0 0 1024 1024" version="1.1" xmlns="http://www.w3.org/2000/svg" p-id="5607" xmlns:xlink="http://www.w3.org/1999/xlink" width="200" height="200"><defs><style type="text/css">@font-face { font-family: feedback-iconfont; src: url("//at.alicdn.com/t/font_1031158_u69w8yhxdu.woff2?t=1630033759944") format("woff2"), url("//at.alicdn.com/t/font_1031158_u69w8yhxdu.woff?t=1630033759944") format("woff"), url("//at.alicdn.com/t/font_1031158_u69w8yhxdu.ttf?t=1630033759944") format("truetype"); }
</style></defs><path d="M68.623276 545.961534v-373.061758A101.013645 101.013645 0 0 1 156.938473 69.303396a261.14323 261.14323 0 0 1 53.591756-0.573941 32.714646 32.714646 0 0 1 28.697058 34.866925 33.790786 33.790786 0 0 1-32.140705 32.499419c-11.335338 0.358713-22.598933 0-33.934271 0a34.43647 34.43647 0 0 0-35.871323 36.660492v746.123515a34.43647 34.43647 0 0 0 36.732234 36.803977H850.618114a34.651698 34.651698 0 0 0 37.090948-37.951859V175.912967a41.036793 41.036793 0 0 0-7.174265-26.114323 33.503816 33.503816 0 0 0-26.903492-13.487617h-33.934271a34.292985 34.292985 0 0 1-34.795184-33.647301 33.790786 33.790786 0 0 1 33.216845-34.292985h0.717427a307.488979 307.488979 0 0 1 58.255028 3.156677 100.439704 100.439704 0 0 1 78.414712 95.417718v750.284589a101.372358 101.372358 0 0 1-60.335565 97.498255 95.345976 95.345976 0 0 1-42.543389 9.183059H171.645715A102.089785 102.089785 0 0 1 68.623276 922.753909V545.961534z" fill="currentColor" p-id="5608"></path><path d="M512.279797 204.538283H379.268932a67.940285 67.940285 0 0 1-71.742646-71.742646V70.451278a67.653315 67.653315 0 0 1 70.307793-70.307793h268.747951a67.653315 67.653315 0 0 1 70.092564 70.020822v65.859749a67.366344 67.366344 0 0 1-66.146719 68.585969h-1.147882c-45.628323 0.286971-91.328388-0.143485-137.100196-0.071742zM648.23211 68.657712H376.112255V136.311027h271.97637V69.016425zM511.490628 614.404018H311.400389a37.16269 37.16269 0 0 1-26.186066-8.465633 32.786389 32.786389 0 0 1-10.330941-35.297381 32.140705 32.140705 0 0 1 27.549176-24.177272 55.31358 55.31358 0 0 1 7.748206-0.573941h403.624125a34.149499 34.149499 0 0 1 9.685257 67.438087 73.320984 73.320984 0 0 1-12.698449 0.860912H511.490628z m0 170.460526H307.956742a34.006014 34.006014 0 0 1-27.11872-55.170095 33.288588 33.288588 0 0 1 27.764404-12.913676h405.776404a33.790786 33.790786 0 0 1 35.871323 34.006014 33.36033 33.36033 0 0 1-32.642904 34.006014H511.921084z m-67.438087-409.435279h135.808828a34.006014 34.006014 0 1 1 0 68.012028H308.45894a34.077757 34.077757 0 1 1 0-68.012028z" fill="currentColor" p-id="5609"></path></svg>