<?xml version="1.0" standalone="no"?><!DOCTYPE svg PUBLIC "-//W3C//DTD SVG 1.1//EN" "http://www.w3.org/Graphics/SVG/1.1/DTD/svg11.dtd"><svg t="1659081124280" class="icon" viewBox="0 0 1024 1024" version="1.1" xmlns="http://www.w3.org/2000/svg" p-id="5177" xmlns:xlink="http://www.w3.org/1999/xlink" width="200" height="200"><defs><style type="text/css">@font-face { font-family: feedback-iconfont; src: url("//at.alicdn.com/t/font_1031158_u69w8yhxdu.woff2?t=1630033759944") format("woff2"), url("//at.alicdn.com/t/font_1031158_u69w8yhxdu.woff?t=1630033759944") format("woff"), url("//at.alicdn.com/t/font_1031158_u69w8yhxdu.ttf?t=1630033759944") format("truetype"); }
</style></defs><path d="M652.701315 146.265179a141.01832 141.01832 0 1 0-281.749141 0h-70.437285v73.168526h422.695585V146.265179z m-211.38373 0a70.50916 70.50916 0 1 1 140.946445 0z m0 0" fill="currentColor" p-id="5178"></path><path d="M833.107014 146.265179h-56.709202v73.168526h28.390538a39.890503 39.890503 0 0 1 37.806135 41.759248v647.807398a39.962378 39.962378 0 0 1-37.806135 41.759248H218.937013a39.962378 39.962378 0 0 1-37.806134-41.759248V261.192953a39.890503 39.890503 0 0 1 37.806134-41.759248h28.390539V146.265179h-56.709202A79.924756 79.924756 0 0 0 115.00608 229.855549v710.482206a79.852881 79.852881 0 0 0 75.61227 83.518495h642.560539a79.924756 79.924756 0 0 0 75.612269-83.590369V229.783674a79.924756 79.924756 0 0 0-75.612269-83.59037z m0 0" fill="currentColor" p-id="5179"></path><path d="M300.443015 804.422545h422.695585a36.584263 36.584263 0 0 0 0-73.096652H300.443015a36.584263 36.584263 0 0 0 0 73.096652z m0 0" fill="currentColor" p-id="5180"></path><path d="M300.443015 621.644978h422.695585a36.584263 36.584263 0 0 0 0-73.096652H300.443015a36.584263 36.584263 0 0 0 0 73.096652z m0 0" fill="currentColor" p-id="5181"></path><path d="M300.443015 438.795536h422.695585a36.584263 36.584263 0 0 0 0-73.096652H300.443015a36.584263 36.584263 0 0 0 0 73.096652z m0 0" fill="currentColor" p-id="5182"></path></svg>