<?xml version="1.0" standalone="no"?><!DOCTYPE svg PUBLIC "-//W3C//DTD SVG 1.1//EN" "http://www.w3.org/Graphics/SVG/1.1/DTD/svg11.dtd"><svg t="1659941192678" class="icon" viewBox="0 0 1024 1024" version="1.1" xmlns="http://www.w3.org/2000/svg" p-id="2336" xmlns:xlink="http://www.w3.org/1999/xlink" width="200" height="200"><defs><style type="text/css">@font-face { font-family: feedback-iconfont; src: url("//at.alicdn.com/t/font_1031158_u69w8yhxdu.woff2?t=1630033759944") format("woff2"), url("//at.alicdn.com/t/font_1031158_u69w8yhxdu.woff?t=1630033759944") format("woff"), url("//at.alicdn.com/t/font_1031158_u69w8yhxdu.ttf?t=1630033759944") format("truetype"); }
</style></defs><path d="M803.237932 518.445633a185.212121 185.212121 0 0 0-57.953654-135.187166L333.39123 16.370766A62.745098 62.745098 0 0 0 243.266453 22.816399a62.745098 62.745098 0 0 0 6.673797 90.124777l411.721925 373.333334a49.16934 49.16934 0 0 1 12.891265 32.171123 55.614973 55.614973 0 0 1-19.336898 38.616756L243.266453 911.058824a63.885918 63.885918 0 1 0 83.679144 96.57041l411.950089-353.996435a154.010695 154.010695 0 0 0 64.342246-135.187166z" fill="#a4a4a4" p-id="2337"></path></svg>