<?xml version="1.0" standalone="no"?><!DOCTYPE svg PUBLIC "-//W3C//DTD SVG 1.1//EN" "http://www.w3.org/Graphics/SVG/1.1/DTD/svg11.dtd"><svg t="1659409471377" class="icon" viewBox="0 0 1029 1024" version="1.1" xmlns="http://www.w3.org/2000/svg" p-id="2222" xmlns:xlink="http://www.w3.org/1999/xlink" width="200.9765625" height="200"><defs><style type="text/css">@font-face { font-family: feedback-iconfont; src: url("//at.alicdn.com/t/font_1031158_u69w8yhxdu.woff2?t=1630033759944") format("woff2"), url("//at.alicdn.com/t/font_1031158_u69w8yhxdu.woff?t=1630033759944") format("woff"), url("//at.alicdn.com/t/font_1031158_u69w8yhxdu.ttf?t=1630033759944") format("truetype"); }
</style></defs><path d="M902.803875 438.987379a41.560618 41.560618 0 0 0-41.614244 41.506991v360.853417a99.906363 99.906363 0 0 1-99.906363 99.63823H183.134852a99.906363 99.906363 0 0 1-99.906363-99.691856V264.754543a99.906363 99.906363 0 0 1 99.906363-99.63823h361.711443a41.506991 41.506991 0 1 0 0-82.960356H183.134852A183.081225 183.081225 0 0 0 0 264.754543v576.593244a183.081225 183.081225 0 0 0 183.134852 182.652213h578.148416a183.081225 183.081225 0 0 0 183.134852-182.652213V480.49437a41.560618 41.560618 0 0 0-41.614245-41.506991z m101.086149-318.273894L908.810055 25.90165a89.073789 89.073789 0 0 0-125.53988 0L335.70254 472.2895a88.376643 88.376643 0 0 0-23.542079 42.901283l-34.910919 153.372087a65.102697 65.102697 0 0 0 63.493899 79.313747 65.960723 65.960723 0 0 0 12.494998-1.179785l157.662216-30.567165a88.537523 88.537523 0 0 0 45.850746-24.292851l446.924116-445.797958a88.483896 88.483896 0 0 0 0-125.21812zM383.001205 577.933909l66.228855 65.638963-84.730034 16.409741z m562.006808-390.669808l-417.751244 416.571458-103.284839-102.373187 418.28751-416.946844a5.36266 5.36266 0 0 1 7.88311 0l95.079969 94.811835a5.36266 5.36266 0 0 1 0 7.883111z" fill="#999999" p-id="2223"></path></svg>