<?xml version="1.0" standalone="no"?><!DOCTYPE svg PUBLIC "-//W3C//DTD SVG 1.1//EN" "http://www.w3.org/Graphics/SVG/1.1/DTD/svg11.dtd"><svg t="1659340522281" class="icon" viewBox="0 0 1207 1024" version="1.1" xmlns="http://www.w3.org/2000/svg" p-id="2197" xmlns:xlink="http://www.w3.org/1999/xlink" width="235.7421875" height="200"><defs><style type="text/css">@font-face { font-family: feedback-iconfont; src: url("//at.alicdn.com/t/font_1031158_u69w8yhxdu.woff2?t=1630033759944") format("woff2"), url("//at.alicdn.com/t/font_1031158_u69w8yhxdu.woff?t=1630033759944") format("woff"), url("//at.alicdn.com/t/font_1031158_u69w8yhxdu.ttf?t=1630033759944") format("truetype"); }
</style></defs><path d="M604.411589 108.771002a45.782429 45.782429 0 0 0-46.386154 44.977464v629.483248a46.386154 46.386154 0 0 0 92.772307 0V153.748466a45.681809 45.681809 0 0 0-46.386153-44.977464z m0-108.771002L293.694794 306.691966a44.071877 44.071877 0 0 0 9.257106 62.988573 47.593602 47.593602 0 0 0 55.643261 0l245.816428-242.797806 245.816428 237.062425a45.581188 45.581188 0 0 0 62.887952 1.911794l2.012415-1.911794a43.16629 43.16629 0 0 0 0-62.082987z m510.147069 1022.507795H94.264519a78.987268 78.987268 0 0 1-92.772307-92.772308V756.26536a46.386154 46.386154 0 1 1 92.772307 0V929.735487h1020.39476V756.26536a46.386154 46.386154 0 0 1 92.772307 0V929.735487a97.602102 97.602102 0 0 1-92.772307 92.772308z" fill="currentColor" p-id="2198"></path></svg>