<?xml version="1.0" standalone="no"?><!DOCTYPE svg PUBLIC "-//W3C//DTD SVG 1.1//EN" "http://www.w3.org/Graphics/SVG/1.1/DTD/svg11.dtd"><svg t="1659491599138" class="icon" viewBox="0 0 1024 1024" version="1.1" xmlns="http://www.w3.org/2000/svg" p-id="2209" xmlns:xlink="http://www.w3.org/1999/xlink" width="200" height="200"><defs><style type="text/css">@font-face { font-family: feedback-iconfont; src: url("//at.alicdn.com/t/font_1031158_u69w8yhxdu.woff2?t=1630033759944") format("woff2"), url("//at.alicdn.com/t/font_1031158_u69w8yhxdu.woff?t=1630033759944") format("woff"), url("//at.alicdn.com/t/font_1031158_u69w8yhxdu.ttf?t=1630033759944") format("truetype"); }
</style></defs><path d="M512 512H0A512 512 0 1 0 512 0 512 512 0 0 0 0 512z" fill="#FFFFFF" p-id="2210"></path><path d="M719.136 582.88a48.32 48.32 0 0 1-23.488-23.264 163.488 163.488 0 0 1-6.944-75.2 292.512 292.512 0 0 0 0-60.224 212.16 212.16 0 0 0-41.6-98.592 187.328 187.328 0 0 0-121.6-67.2v-13.664a20.8 20.8 0 0 0-41.6 0v15.04a184.224 184.224 0 0 0-45.696 10.944 194.528 194.528 0 0 0-112 124.576 251.68 251.68 0 0 0-5.504 84.864 154.272 154.272 0 0 1-9.792 84.864c-4.16 8.224-9.792 10.944-23.488 16.32a56.288 56.288 0 0 0-31.808 50.656 52.928 52.928 0 0 0 52.48 50.656h106.368a90.944 90.944 0 0 0 179.52 0h106.784a51.2 51.2 0 0 0 51.2-52.032 50.144 50.144 0 0 0-33.152-48z m-214.176 136.896a50.528 50.528 0 0 1-48.352-35.584h95.36a47.616 47.616 0 0 1-47.008 35.584z m196.128-78.016H308.8c-5.504 0-9.792-5.472-11.072-10.976a10.848 10.848 0 0 1 6.912-10.976 73.792 73.792 0 0 0 41.6-34.208 173.92 173.92 0 0 0 15.2-108.128 231.264 231.264 0 0 1 2.656-69.856A152.064 152.064 0 0 1 452.512 310.4a117.312 117.312 0 0 1 48.352-9.6h1.376a143.264 143.264 0 0 1 110.528 53.44 160.384 160.384 0 0 1 33.152 78.016 217.6 217.6 0 0 1 0 52.032 184.448 184.448 0 0 0 11.072 94.464 80.544 80.544 0 0 0 41.6 41.056c11.072 5.472 11.072 6.848 11.072 10.976 2.784 6.848-1.376 10.976-8.288 10.976z" fill="#2EBBA3" p-id="2211"></path></svg>