<?xml version="1.0" standalone="no"?><!DOCTYPE svg PUBLIC "-//W3C//DTD SVG 1.1//EN" "http://www.w3.org/Graphics/SVG/1.1/DTD/svg11.dtd"><svg t="1659347923040" class="icon" viewBox="0 0 1027 1024" version="1.1" xmlns="http://www.w3.org/2000/svg" p-id="2558" xmlns:xlink="http://www.w3.org/1999/xlink" width="200.5859375" height="200"><defs><style type="text/css">@font-face { font-family: feedback-iconfont; src: url("//at.alicdn.com/t/font_1031158_u69w8yhxdu.woff2?t=1630033759944") format("woff2"), url("//at.alicdn.com/t/font_1031158_u69w8yhxdu.woff?t=1630033759944") format("woff"), url("//at.alicdn.com/t/font_1031158_u69w8yhxdu.ttf?t=1630033759944") format("truetype"); }
</style></defs><path d="M983.841729 313.370827A511.938751 511.938751 0 1 0 1023.959761 512.021437a508.059654 508.059654 0 0 0-40.118032-198.65061zM513.552233 930.198325A418.176888 418.176888 0 1 1 931.729121 512.021437 418.534173 418.534173 0 0 1 513.552233 930.198325z" fill="#999999" p-id="2559"></path><path d="M686.478303 521.821262a48.79496 48.79496 0 0 0-68.751894 4.236382l-56.144828 63.494697V348.231661v-4.542627-39.658665a48.080389 48.080389 0 1 0-96.211819 0v34.55459a42.363825 42.363825 0 0 0 0.357285 5.104075v245.40394l-56.144828-63.392615a48.692878 48.692878 0 0 0-72.937236 64.515511l140.515193 158.889864a46.855411 46.855411 0 0 0 16.435122 12.096659h0.357285l1.684345 0.663529a1.633304 1.633304 0 0 0 0.66353 0 6.482176 6.482176 0 0 0 1.3781 0.459367l0.918734 0.357285 1.122896 0.357286 1.122897 0.357285a3.317649 3.317649 0 0 0 1.020815 0l1.276019 0.357285h0.918733a5.716564 5.716564 0 0 0 1.378101 0h4.593668a3.164527 3.164527 0 0 1 1.020815 0h4.79783a3.164527 3.164527 0 0 0 1.020815 0h2.296834a5.665524 5.665524 0 0 0 1.378101 0h3.215567l1.276019-0.357285h1.020815l1.122897-0.357285 1.122896-0.357286 0.918734-0.357285 1.3781-0.459367a1.582263 1.582263 0 0 1 0.66353 0l1.735385-0.663529h0.357286a47.927267 47.927267 0 0 0 16.435122-12.096659l140.668315-158.889864a48.335593 48.335593 0 0 0-3.981179-68.394608z" fill="#999999" p-id="2560"></path></svg>