<?xml version="1.0" standalone="no"?><!DOCTYPE svg PUBLIC "-//W3C//DTD SVG 1.1//EN" "http://www.w3.org/Graphics/SVG/1.1/DTD/svg11.dtd"><svg t="1659079308766" class="icon" viewBox="0 0 1024 1024" version="1.1" xmlns="http://www.w3.org/2000/svg" p-id="4172" xmlns:xlink="http://www.w3.org/1999/xlink" width="200" height="200"><defs><style type="text/css">@font-face { font-family: feedback-iconfont; src: url("//at.alicdn.com/t/font_1031158_u69w8yhxdu.woff2?t=1630033759944") format("woff2"), url("//at.alicdn.com/t/font_1031158_u69w8yhxdu.woff?t=1630033759944") format("woff"), url("//at.alicdn.com/t/font_1031158_u69w8yhxdu.ttf?t=1630033759944") format("truetype"); }
</style></defs><path d="M731.372669 146.274534a146.274534 146.274534 0 0 1 146.274534 146.274534v585.098135a146.274534 146.274534 0 0 1-146.274534 146.274533H146.352797A146.274534 146.274534 0 0 1 0.078264 877.647203V292.627331A146.274534 146.274534 0 0 1 146.352797 146.352797h585.019872z m0 73.098135H146.352797a73.098135 73.098135 0 0 0-72.628554 64.56741l-0.547844 8.530725v585.176399a73.098135 73.098135 0 0 0 64.56741 72.628554l8.530725 0.547844h585.019871a73.098135 73.098135 0 0 0 72.628554-64.56741l0.547845-8.530725V292.705595a73.098135 73.098135 0 0 0-64.567411-72.628554l-8.530724-0.547845z" fill="currentColor" p-id="4173"></path><path d="M768 0a255.921736 255.921736 0 0 1 255.608682 241.912565V767.843473a36.549068 36.549068 0 0 1-72.55029 6.574136l-0.547845-6.574136V255.921736A182.823601 182.823601 0 0 0 779.661266 73.489453H255.765209a36.549068 36.549068 0 0 1-6.574136-72.550291l6.574136-0.547844z" fill="currentColor" p-id="4174"></path><path d="M256 548.470804h365.647203a32.322837 32.322837 0 0 1 36.549067 36.549068 32.322837 32.322837 0 0 1-36.549067 36.549067H256a32.322837 32.322837 0 0 1-36.549068-36.549067 32.322837 32.322837 0 0 1 36.549068-36.549068z" fill="currentColor" p-id="4175"></path><path d="M475.294405 402.19627v365.647203a32.322837 32.322837 0 0 1-36.549067 36.549068 32.322837 32.322837 0 0 1-36.549068-36.549068V402.19627a32.322837 32.322837 0 0 1 36.549068-36.549067 32.322837 32.322837 0 0 1 36.549067 36.549067z" fill="currentColor" p-id="4176"></path></svg>