<?xml version="1.0" standalone="no"?><!DOCTYPE svg PUBLIC "-//W3C//DTD SVG 1.1//EN" "http://www.w3.org/Graphics/SVG/1.1/DTD/svg11.dtd"><svg t="1661420017516" class="icon" viewBox="0 0 1024 1024" version="1.1" xmlns="http://www.w3.org/2000/svg" p-id="2756" xmlns:xlink="http://www.w3.org/1999/xlink" width="32" height="32"><defs><style type="text/css">@font-face { font-family: feedback-iconfont; src: url("//at.alicdn.com/t/font_1031158_u69w8yhxdu.woff2?t=1630033759944") format("woff2"), url("//at.alicdn.com/t/font_1031158_u69w8yhxdu.woff?t=1630033759944") format("woff"), url("//at.alicdn.com/t/font_1031158_u69w8yhxdu.ttf?t=1630033759944") format("truetype"); }
</style></defs><path d="M512 512H0A512 512 0 1 0 512 0 512 512 0 0 0 0 512z" fill="#FFFFFF" p-id="2757"></path><path d="M488.139806 727.269903H293.219417c0-8.699029 0.372816-17.98835 0.559224-26.718447s0.403883-16.900971 0.466019-23.176699c3.666019-6.213592 12.427184-9.724272 28.333981-15.254369 5.592233-1.957282 11.401942-3.945631 17.242718-6.4 9.941748-4.194175 20.287379-8.636893 30.757282-13.141747 15.533981-6.71068 31.720388-13.638835 46.601942-19.759224l20.380582-5.561165a22.120388 22.120388 0 0 0 6.772816-3.106796 71.61165 71.61165 0 0 0 20.504854-26.376699c0.497087-0.963107 0.994175-1.98835 1.491262-3.106796l0.807767-1.646602c1.646602-3.324272 3.293204-6.71068 4.908738-10.221359l0.994175-2.143689a22.151456 22.151456 0 0 0 2.050485-9.320389v-0.186407a22.928155 22.928155 0 0 0-0.186408-2.516505v-0.714563c0-0.248544-0.279612-1.304854-0.434951-1.926214l-0.279612-1.21165a21.157282 21.157282 0 0 0-0.807767-2.081554c0-0.31068-0.217476-0.621359-0.372815-0.932039a22.431068 22.431068 0 0 0-3.66602-5.467961 169.133981 169.133981 0 0 1-41.848543-96.093204q-0.714563-7.580583-0.745631-15.192233c0-11.930097 0.466019-22.866019 1.398058-32.900971 6.213592-70.213592 33.491262-95.906796 62.135922-104.761165a109.607767 109.607767 0 0 1 32.434952-4.380582 96.714563 96.714563 0 0 1 44.48932 9.320388c27.961165 14.229126 51.417476 49.242718 51.417476 132.753398a169.320388 169.320388 0 0 1-13.545631 65.429126 60.427184 60.427184 0 0 1 45.452427 6.368932 212.100971 212.100971 0 0 0 12.675728-71.798058c0-77.079612-19.106796-123.712621-46.198058-151.052427A128.621359 128.621359 0 0 0 522.718447 248.543689c-58.097087 0-126.260194 26.563107-138.532039 146.299029a393.693204 393.693204 0 0 0-1.957282 40.23301q0 4.380583 0.186408 8.792233c0.279612 6.213592 0.869903 12.675728 1.708738 18.982524a213.157282 213.157282 0 0 0 4.691262 24.264078c1.36699 5.343689 2.951456 10.594175 4.691262 15.813592l0.31068 0.932039 0.932039 2.547573a210.112621 210.112621 0 0 0 31.906796 58.376699l-0.62136 1.180583-1.118446 2.143689-0.497088 0.900971-1.335922 2.392233-0.869903 1.460194-0.279611 0.466019-1.398059 2.14369-0.217475 0.341747-16.093204 4.380583a22.741748 22.741748 0 0 0-2.609709 0.900971c-15.533981 6.4-32.403883 13.607767-48.621359 20.598058-10.345631 4.442718-20.629126 8.854369-30.47767 13.017476-4.473786 1.895146-9.320388 3.572816-14.47767 5.374757a78.508738 78.508738 0 0 0-57.071845 45.359223 22.337864 22.337864 0 0 0-1.21165 7.269903c0 6.213592-0.248544 16.062136-0.497088 26.811651-0.434951 17.273786-0.932039 36.908738-0.621359 50.485436a22.275728 22.275728 0 0 0 22.275728 21.747573h281.040777l-44.582524-44.48932h-19.231068z" fill="#2EBBA3" p-id="2758"></path><path d="M781.700971 630.120388h-171.308738l51.697087-51.697087a16.186408 16.186408 0 0 0 0-22.866019l-11.433009-11.43301a16.186408 16.186408 0 0 0-22.86602 0l-97.770874 97.770874a20.598058 20.598058 0 0 0-6.027184 14.788349 21.312621 21.312621 0 0 0 6.027184 14.78835l97.770874 97.770873a16.186408 16.186408 0 0 0 22.86602 0l11.433009-11.433009a16.186408 16.186408 0 0 0 0-22.86602l-51.697087-51.697087h171.308738a15.192233 15.192233 0 0 0 15.192233-15.192233v-22.772816a15.192233 15.192233 0 0 0-15.192233-15.161165z" fill="#2EBBA3" p-id="2759"></path></svg>