<svg xmlns="http://www.w3.org/2000/svg" width="16.054" height="15.886" viewBox="0 0 16.054 15.886">
  <g id="删除" transform="translate(-104.4 -88)">
    <path id="路径_706" data-name="路径 706" d="M119.816,198.775H105.037a.637.637,0,1,1,0-1.275h14.779a.637.637,0,1,1,0,1.275Z" transform="translate(0 -107.346)" fill="#ee5f66"/>
    <path id="路径_707" data-name="路径 707" d="M198.551,238.387h-9.432a1.62,1.62,0,0,1-1.619-1.619V225.837a.637.637,0,0,1,1.275,0V236.77a.349.349,0,0,0,.344.344h9.432a.347.347,0,0,0,.342-.344V225.837a.637.637,0,1,1,1.275,0V236.77A1.617,1.617,0,0,1,198.551,238.387Z" transform="translate(-81.465 -134.501)" fill="#ee5f66"/>
    <path id="路径_708" data-name="路径 708" d="M327.778,100.229a.637.637,0,0,1-.637-.637V94.439a.637.637,0,1,1,1.275,0v5.153A.637.637,0,0,1,327.778,100.229Zm2.42,0a.637.637,0,0,1-.637-.637V94.439a.637.637,0,1,1,1.275,0v5.153A.637.637,0,0,1,330.2,100.229Zm2.422,0a.637.637,0,0,1-.637-.637V94.439a.637.637,0,0,1,1.275,0v5.153A.637.637,0,0,1,332.62,100.229Zm.539-9.044a.637.637,0,0,1-.637-.637v-.818a.455.455,0,0,0-.454-.454h-3.738a.455.455,0,0,0-.454.454v.818a.637.637,0,1,1-1.275,0v-.818A1.73,1.73,0,0,1,328.329,88h3.74a1.73,1.73,0,0,1,1.729,1.729v.818A.638.638,0,0,1,333.159,91.185Z" transform="translate(-217.829)" fill="#ee5f66"/>
  </g>
</svg>
