<?xml version="1.0" standalone="no"?><!DOCTYPE svg PUBLIC "-//W3C//DTD SVG 1.1//EN" "http://www.w3.org/Graphics/SVG/1.1/DTD/svg11.dtd"><svg t="1655970234525" class="icon" viewBox="0 0 1024 1024" version="1.1" xmlns="http://www.w3.org/2000/svg" p-id="3328" xmlns:xlink="http://www.w3.org/1999/xlink" width="200" height="200"><defs><style type="text/css">@font-face { font-family: feedback-iconfont; src: url("//at.alicdn.com/t/font_1031158_u69w8yhxdu.woff2?t=1630033759944") format("woff2"), url("//at.alicdn.com/t/font_1031158_u69w8yhxdu.woff?t=1630033759944") format("woff"), url("//at.alicdn.com/t/font_1031158_u69w8yhxdu.ttf?t=1630033759944") format("truetype"); }
</style></defs><path d="M725.674667 330.296889h-53.589334a36.408889 36.408889 0 0 0-29.582222 15.189333l-179.655111 249.173334-81.408-112.924445a36.522667 36.522667 0 0 0-29.582222-15.189333h-53.589334a9.159111 9.159111 0 0 0-7.452444 14.506666l142.222222 197.461334a36.352 36.352 0 0 0 59.107556 0l240.696889-333.710222a9.102222 9.102222 0 0 0-7.168-14.506667z" fill="#2EBBA3" p-id="3329"></path><path d="M512 1024a512 512 0 1 1 512-512 512.568889 512.568889 0 0 1-512 512zM512 86.869333A425.130667 425.130667 0 1 0 937.130667 512 425.642667 425.642667 0 0 0 512 86.869333z" fill="#2EBBA3" p-id="3330"></path></svg>