<?xml version="1.0" standalone="no"?>
<!DOCTYPE svg PUBLIC "-//W3C//DTD SVG 1.1//EN" "http://www.w3.org/Graphics/SVG/1.1/DTD/svg11.dtd" >
<svg xmlns="http://www.w3.org/2000/svg">
  <metadata>Created by iconfont</metadata>
  <defs>
  <font id="iconfont" horiz-adv-x="1024">
    <font-face
      font-family="iconfont"
      font-weight="400"
      font-stretch="normal"
      units-per-em="1024"
      ascent="896"
      descent="-128"
    />
      <missing-glyph />
      
      <glyph glyph-name="touxiang" unicode="&#59244;" d="M512 384H0A512 512 0 1 1 512 896 512 512 0 0 1 0 384zM646.337864 521.040777a137.817476 137.817476 0 1 0-137.817476 136.015534 136.699029 136.699029 0 0 0 137.817476-136.015534z m82.733981-417.398059H281.102913c-19.697087 0-28.551456 14.63301-28.551457 34.174758a200.574757 200.574757 0 0 0 199.860194 207.53398h105.320389a213.03301 213.03301 0 0 0 213.623301-208.497087v1.957281c0.963107-19.51068-22.648544-34.174757-42.314563-35.075728z"  horiz-adv-x="1024" />
      
      <glyph glyph-name="daoruxueshengzhanghao" unicode="&#59243;" d="M512 384H0A512 512 0 1 1 512 896 512 512 0 0 1 0 384zM488.139806 168.730097H293.219417c0 8.699029 0.372816 17.98835 0.559224 26.718447s0.403883 16.900971 0.466019 23.176699c3.666019 6.213592 12.427184 9.724272 28.333981 15.254369 5.592233 1.957282 11.401942 3.945631 17.242718 6.4 9.941748 4.194175 20.287379 8.636893 30.757282 13.141747 15.533981 6.71068 31.720388 13.638835 46.601942 19.759224l20.380582 5.561165a22.120388 22.120388 0 0 1 6.772816 3.106796 71.61165 71.61165 0 0 1 20.504854 26.376699c0.497087 0.963107 0.994175 1.98835 1.491262 3.106796l0.807767 1.646602c1.646602 3.324272 3.293204 6.71068 4.908738 10.221359l0.994175 2.143689a22.151456 22.151456 0 0 1 2.050485 9.320389v0.186407a22.928155 22.928155 0 0 1-0.186408 2.516505v0.714563c0 0.248544-0.279612 1.304854-0.434951 1.926214l-0.279612 1.21165a21.157282 21.157282 0 0 1-0.807767 2.081554c0 0.31068-0.217476 0.621359-0.372815 0.932039a22.431068 22.431068 0 0 1-3.66602 5.467961 169.133981 169.133981 0 0 0-41.848543 96.093204q-0.714563 7.580583-0.745631 15.192233c0 11.930097 0.466019 22.866019 1.398058 32.900971 6.213592 70.213592 33.491262 95.906796 62.135922 104.761165a109.607767 109.607767 0 0 0 32.434952 4.380582 96.714563 96.714563 0 0 0 44.48932-9.320388c27.961165-14.229126 51.417476-49.242718 51.417476-132.753398a169.320388 169.320388 0 0 0-13.545631-65.429126 60.427184 60.427184 0 0 0 45.452427-6.368932 212.100971 212.100971 0 0 1 12.675728 71.798058c0 77.079612-19.106796 123.712621-46.198058 151.052427A128.621359 128.621359 0 0 1 522.718447 647.456311c-58.097087 0-126.260194-26.563107-138.532039-146.299029a393.693204 393.693204 0 0 1-1.957282-40.23301q0-4.380583 0.186408-8.792233c0.279612-6.213592 0.869903-12.675728 1.708738-18.982524a213.157282 213.157282 0 0 1 4.691262-24.264078c1.36699-5.343689 2.951456-10.594175 4.691262-15.813592l0.31068-0.932039 0.932039-2.547573a210.112621 210.112621 0 0 1 31.906796-58.376699l-0.62136-1.180583-1.118446-2.143689-0.497088-0.900971-1.335922-2.392233-0.869903-1.460194-0.279611-0.466019-1.398059-2.14369-0.217475-0.341747-16.093204-4.380583a22.741748 22.741748 0 0 1-2.609709-0.900971c-15.533981-6.4-32.403883-13.607767-48.621359-20.598058-10.345631-4.442718-20.629126-8.854369-30.47767-13.017476-4.473786-1.895146-9.320388-3.572816-14.47767-5.374757a78.508738 78.508738 0 0 1-57.071845-45.359223 22.337864 22.337864 0 0 1-1.21165-7.269903c0-6.213592-0.248544-16.062136-0.497088-26.811651-0.434951-17.273786-0.932039-36.908738-0.621359-50.485436a22.275728 22.275728 0 0 1 22.275728-21.747573h281.040777l-44.582524 44.48932h-19.231068zM781.700971 265.879612h-171.308738l51.697087 51.697087a16.186408 16.186408 0 0 1 0 22.866019l-11.433009 11.43301a16.186408 16.186408 0 0 1-22.86602 0l-97.770874-97.770874a20.598058 20.598058 0 0 1-6.027184-14.788349 21.312621 21.312621 0 0 1 6.027184-14.78835l97.770874-97.770873a16.186408 16.186408 0 0 1 22.86602 0l11.433009 11.433009a16.186408 16.186408 0 0 1 0 22.86602l-51.697087 51.697087h171.308738a15.192233 15.192233 0 0 1 15.192233 15.192233v22.772816a15.192233 15.192233 0 0 1-15.192233 15.161165z"  horiz-adv-x="1024" />
      
      <glyph glyph-name="yonghu" unicode="&#59592;" d="M500 767.2c-95.2-5.6-173.6-83.2-180-178.4-7.2-112 80.8-205.6 191.2-205.6 106.4 0 192 86.4 192 192 0.8 110.4-92 198.4-203.2 192zM512 320.8c-128 0-383.2-64-383.2-192v-96c0-17.6 14.4-32 32-32h702.4c17.6 0 32 14.4 32 32V129.6c0 127.2-255.2 191.2-383.2 191.2z"  horiz-adv-x="1024" />
      
      <glyph glyph-name="shangchuan-01" unicode="&#58881;" d="M618.787 296.904l-70.025 56.02a14.007 14.007 0 0 1-17.506 0l-70.026-56.02c-6.031-4.814-7.015-13.65-2.188-19.669 4.842-6.043 13.636-7.056 19.695-2.2l47.265 37.817v-236.963c0-7.715 6.265-14.007 14.006-14.007s14.005 6.29 14.005 14.007V312.852l47.267-37.817a13.963 13.963 0 0 1 8.74-3.078c4.116 0 8.178 1.805 10.954 5.278 4.83 6.018 3.845 14.855-2.187 19.67z m229.018 128.41c-7.276 156.032-142.143 280.804-306.865 280.804-145.713 0-275.177-95.552-306.306-224.08h-12.077c-87.516 0-158.719-69.115-158.719-154.056 0-86.387 67.674-154.062 154.055-154.062h168.06c7.741 0 14.006 6.292 14.006 14.007 0 7.74-6.264 14.005-14.005 14.005h-168.06c-70.68 0-126.045 55.363-126.045 126.051 0 69.5 58.633 126.053 130.708 126.053h34.89l2.202 11.338C283.201 586.646 404.13 678.11 540.94 678.11c153.932 0 279.17-119.37 279.17-266.095v-14.005h14.006c54.967 0 98.036-43.063 98.036-98.04 0-54.97-43.07-98.037-98.036-98.037h-140.05c-7.74 0-14.005-6.263-14.005-14.005 0-7.714 6.264-14.007 14.005-14.007h140.05c70.682 0 126.046 55.365 126.046 126.047-0.001 66.052-48.35 118.734-112.356 125.347z"  horiz-adv-x="1024" />
      
      <glyph glyph-name="shanchu" unicode="&#58925;" d="M253.2 628h516.6c-8.7 0-15.9 7.6-15.3 16.4L715.4 18c0.5 7.4 6.3 12.8 13.8 12.8H293.8c7.4 0 13.3-5.5 13.8-12.8l-39.1 626.4c0.5-8.7-6.6-16.4-15.3-16.4z m-2-613.6c1.4-22.4 20.2-40.1 42.6-40.1h435.3c22.4 0 41.2 17.8 42.6 40.1l39.1 626.4c1.5 23.9-17.2 43.7-41.1 43.7H253.2c-23.9 0-42.5-19.8-41.1-43.7l39.1-626.4zM878.7 628c15.6 0 28.3 12.6 28.3 28.2s-12.6 28.3-28.3 28.3H144.3c-15.6 0-28.3-12.6-28.3-28.3 0-15.6 12.6-28.2 28.3-28.2h734.4zM389 628h245c23.1 0 41.7 18.9 41.7 41.8v81.8c0 23.1-18.8 41.8-41.7 41.8H389c-23.1 0-41.7-18.9-41.7-41.8v-81.8c-0.1-23 18.7-41.8 41.7-41.8z m14.7 123.7c0-8.1-6.5-14.7-14.8-14.7h245c-8.2 0-14.8 6.5-14.8 14.7v-81.8c0 8.1 6.5 14.7 14.8 14.7H389c8.2 0 14.8-6.5 14.8-14.7v81.8z m174.7-626.6c0-15.6 12.6-28.2 28.3-28.2 15.6 0 28.2 12.6 28.2 28.2V533.7c0 15.6-12.6 28.2-28.2 28.2s-28.3-12.6-28.3-28.2v-408.6zM444.5 533.7c0 15.6-12.6 28.2-28.2 28.2s-28.2-12.6-28.2-28.2v-408.6c0-15.6 12.6-28.2 28.2-28.2s28.2 12.6 28.2 28.2V533.7z m0 0"  horiz-adv-x="1024" />
      
      <glyph glyph-name="zengjiatianjiajiahao" unicode="&#58922;" d="M511.5-61.9C264.9-61.9 65 137.8 65 384.1s199.9 446 446.5 446S958 630.4 958 384.1c0.1-246.3-199.8-446-446.5-446zM509 746.9c-200.4 0-355.8-162.2-355.8-362.3 0-200.1 155.4-356.8 355.8-356.8s362.9 156.7 362.9 356.8c0 200.1-162.5 362.3-362.9 362.3zM690.5 340h-134v-133.8c0-24.6-20-44.6-44.6-44.6h-0.1c-24.6 0-44.6 19.9-44.6 44.6V340h-134c-24.7 0-44.6 19.9-44.6 44.5v0.1c0 24.6 20 44.6 44.6 44.6h134V563c0 24.6 20 44.6 44.6 44.6h0.1c24.7 0 44.6-19.9 44.6-44.6v-133.8h134c24.7 0 44.6-19.9 44.6-44.6v-0.1c0-24.6-19.9-44.5-44.6-44.5z m0 0"  horiz-adv-x="1024" />
      
      <glyph glyph-name="Chevron-down" unicode="&#58897;" d="M219.818667 548.181333a51.2 51.2 0 0 1 0-72.405333l256-256a51.2 51.2 0 0 1 72.405333 0l256 256a51.2 51.2 0 0 1-72.448 72.405333L512 328.405333 292.224 548.181333a51.2 51.2 0 0 1-72.405333 0z"  horiz-adv-x="1024" />
      
      <glyph glyph-name="CloseDefault" unicode="&#58896;" d="M196.23936 126.1568a40.96 40.96 0 1 1 57.91744-57.91744L512 326.08256l257.8432-257.8432a40.96 40.96 0 0 1 57.91744 57.91744L569.91744 384l257.8432 257.8432a40.96 40.96 0 0 1-57.91744 57.91744L512 441.91744 254.1568 699.8016a40.96 40.96 0 0 1-57.91744-57.91744l257.8432-257.8432-257.8432-257.8432z"  horiz-adv-x="1024" />
      
      <glyph glyph-name="shiyanbaogaopigai-icon" unicode="&#59228;" d="M800.346439 74.02849l122.602849-122.529915a36.613105 36.613105 0 1 0-51.783476-51.783475l-122.529915 122.602849a219.386895 219.386895 0 1 0 51.710542 51.710541z m150.245014 273.431339v-36.467236a36.467236 36.467236 0 0 0-72.934473 0V749.693447a36.467236 36.467236 0 0 1-36.467236 36.467237h-109.40171v72.934473h146.306553a72.934473 72.934473 0 0 0 72.934473-72.934473v-438.846724zM475.204558-128H145.832479a72.934473 72.934473 0 0 0-72.934473 72.934473V786.598291a72.934473 72.934473 0 0 0 72.934473 72.934473h146.306552v-72.934473H182.299715a36.467236 36.467236 0 0 1-36.467236-36.467237v-768a36.467236 36.467236 0 0 1 36.467236-36.467236h329.153276a36.467236 36.467236 0 1 0 0-72.934473zM402.270085 896h219.45983a36.467236 36.467236 0 0 0 36.467236-36.467236V823.065527a36.467236 36.467236 0 0 0-36.467236-36.467236H402.051282a36.467236 36.467236 0 0 0-36.467236 36.467236V859.532764a36.467236 36.467236 0 0 0 36.467236 36.467236z m-109.401709-219.386895h365.693447a36.467236 36.467236 0 1 0 0-72.934473H292.357835a36.467236 36.467236 0 1 0 0 72.934473z m0-146.306552h146.306553a36.467236 36.467236 0 1 0 0-72.934473H292.357835a36.467236 36.467236 0 1 0 0 72.934473z m329.153276-475.386895a146.306553 146.306553 0 1 1-146.306552 146.306553 146.306553 146.306553 0 0 1 145.723077-146.306553z"  horiz-adv-x="1024" />
      
      <glyph glyph-name="dayin-icon" unicode="&#59229;" d="M921.44399 691.216422H819.052201V793.608211A102.720231 102.720231 0 0 1 716.660412 896H307.175367a102.720231 102.720231 0 0 1-102.391789-102.391789v-102.391789H102.391789A102.720231 102.720231 0 0 1 0 588.824633v-409.485045a102.720231 102.720231 0 0 1 102.391789-102.391789h51.154839v-102.391789a102.720231 102.720231 0 0 1 102.391789-102.391789h511.958945a102.720231 102.720231 0 0 1 102.473899 102.391789V76.947799h51.15484a102.720231 102.720231 0 0 1 102.391789 102.391789V588.824633a102.720231 102.720231 0 0 1-102.4739 102.391789zM307.175367 793.608211h409.485045v-102.391789H307.175367z m460.721995-819.052201H255.938417V332.886216h511.958945v-358.330206z m153.546628 255.938417a48.363082 48.363082 0 0 0-51.154839-51.154839v153.546628a102.720231 102.720231 0 0 1-102.391789 102.391789H255.938417A102.720231 102.720231 0 0 1 153.546628 332.886216v-153.546628a48.363082 48.363082 0 0 0-51.154839 51.154839V537.669794a48.363082 48.363082 0 0 0 51.154839 51.154839h716.824633a48.363082 48.363082 0 0 0 51.15484-51.154839v-307.175367z"  horiz-adv-x="1024" />
      
      <glyph glyph-name="dagangguanli-icon" unicode="&#59230;" d="M0 423.774532h475.314698v-79.219116H0zM1023.470035 659.620709H237.184869a74.336825 74.336825 0 0 0-78.746636 78.746636V817.113982a74.336825 74.336825 0 0 0 78.746636 78.746636h786.442659a74.336825 74.336825 0 0 0 78.746637-78.746636v-78.746637a74.336825 74.336825 0 0 0-78.90413-78.746636zM237.184869 817.113982v-78.746637h786.442659V817.113982z m0 39.373318zM1023.627528-127.845657H551.777682a74.336825 74.336825 0 0 0-78.746636 78.746637v78.746636a74.336825 74.336825 0 0 0 78.746636 78.746637h471.849846a74.336825 74.336825 0 0 0 78.746637-78.746637v-78.746636a74.336825 74.336825 0 0 0-78.90413-78.746637z m-471.849846 157.493273v-78.746636h471.849846v78.746636z m0 39.373319zM1023.627528 265.887526H551.777682a74.336825 74.336825 0 0 0-78.746636 78.746637V423.380799a74.336825 74.336825 0 0 0 78.746636 78.746637h471.849846a74.336825 74.336825 0 0 0 78.746637-78.746637v-78.746636a74.336825 74.336825 0 0 0-78.90413-78.746637zM551.777682 423.380799v-78.746636h471.849846V423.380799z m0 39.373318zM0 816.641502h158.438233v-78.746636H0z m0-786.363912h475.314698v-78.746637H0zM0 816.641502h79.219116V-48.311554H0z"  horiz-adv-x="1103" />
      
      <glyph glyph-name="fabuzuoye-icon" unicode="&#59231;" d="M866.711153 764.186202H751.905588a33.941866 33.941866 0 1 1 0-67.809135h114.65637a23.34902 23.34902 0 0 0 25.064763-20.9619v-714.345742a23.274423 23.274423 0 0 0-25.064763-20.9619H157.139652a23.34902 23.34902 0 0 0-24.990166 20.9619V675.265972a23.274423 23.274423 0 0 0 24.990166 20.9619h118.759233a33.941866 33.941866 0 1 1 0 67.809135H157.139652A91.232753 91.232753 0 0 1 63.892766 675.191375v-714.345742a91.232753 91.232753 0 0 1 93.246886-88.845633h709.496904a91.232753 91.232753 0 0 1 93.246885 88.845633V675.265972a91.381948 91.381948 0 0 1-93.172288 88.92023zM718.784294 146.071246h-247.663729a33.941866 33.941866 0 1 1 0-67.809135H718.858891a33.941866 33.941866 0 1 1 0 67.809135z m0 176.572303h-247.663729a33.941866 33.941866 0 1 1 0-67.809135H718.858891a33.941866 33.941866 0 1 1 0 67.809135zM377.426095 689.887084a36.776572 36.776572 0 0 1 8.653311-1.118963 33.867269 33.867269 0 0 1 24.467982 10.369054l67.137758 67.137758V465.572376a33.867269 33.867269 0 0 1 17.08283-29.316821 34.240256 34.240256 0 0 1 34.091061 0 34.091061 34.091061 0 0 1 17.082829 29.316821V765.976543l67.137758-67.137758a34.314854 34.314854 0 0 1 24.54258-10.369054 31.629344 31.629344 0 0 1 8.653311 1.118963 33.941866 33.941866 0 0 1 14.919502 57.216289L511.627012 896l-149.195017-148.82203a33.941866 33.941866 0 0 1 14.919502-57.365484z m-22.379253-367.318132h-50.054928a33.792671 33.792671 0 1 1 0-67.585343h50.054928a33.792671 33.792671 0 1 1 0 67.585343z m0-176.572303h-50.054928a33.792671 33.792671 0 1 1 0-67.585343h50.054928a33.792671 33.792671 0 1 1 0 67.585343z"  horiz-adv-x="1024" />
      
      <glyph glyph-name="dagangpeizhi-icon" unicode="&#59232;" d="M0 423.774532h475.314698v-79.219116H0zM1023.470035 659.620709H237.184869a74.336825 74.336825 0 0 0-78.746636 78.746636V817.113982a74.336825 74.336825 0 0 0 78.746636 78.746636h786.442659a74.336825 74.336825 0 0 0 78.746637-78.746636v-78.746637a74.336825 74.336825 0 0 0-78.90413-78.746636zM237.184869 817.113982v-78.746637h786.442659V817.113982z m0 39.373318zM1023.627528-127.845657H551.777682a74.336825 74.336825 0 0 0-78.746636 78.746637v78.746636a74.336825 74.336825 0 0 0 78.746636 78.746637h471.849846a74.336825 74.336825 0 0 0 78.746637-78.746637v-78.746636a74.336825 74.336825 0 0 0-78.90413-78.746637z m-471.849846 157.493273v-78.746636h471.849846v78.746636z m0 39.373319zM1023.627528 265.887526H551.777682a74.336825 74.336825 0 0 0-78.746636 78.746637V423.380799a74.336825 74.336825 0 0 0 78.746636 78.746637h471.849846a74.336825 74.336825 0 0 0 78.746637-78.746637v-78.746636a74.336825 74.336825 0 0 0-78.90413-78.746637zM551.777682 423.380799v-78.746636h471.849846V423.380799z m0 39.373318zM0 816.641502h158.438233v-78.746636H0z m0-786.363912h475.314698v-78.746637H0zM0 816.641502h79.219116V-48.311554H0z"  horiz-adv-x="1103" />
      
      <glyph glyph-name="bishi-jishizhongxin-icon" unicode="&#59233;" d="M844.02377 896a248.237696 248.237696 0 0 0 248.237696-248.237696v-372.356544a248.237696 248.237696 0 0 0-248.237696-248.237697h-595.708061a248.237696 248.237696 0 0 0-248.237696 248.237697v372.356544A248.237696 248.237696 0 0 0 248.315709 896z m0-86.906598h-595.708061a161.331099 161.331099 0 0 1-161.253085-155.558128v-378.129514a161.331099 161.331099 0 0 1 155.558129-161.253086h601.48103a161.331099 161.331099 0 0 1 161.253085 155.558129v378.051501a161.331099 161.331099 0 0 1-155.558129 161.253085h-5.772969z m0-850.342831a43.453299 43.453299 0 0 0 3.588602-86.750571h-599.296663a43.453299 43.453299 0 0 0-3.588602 86.750571h3.588602zM362.136828 377.836965m39.006552 0l312.052415 0q39.006552 0 39.006551-39.006552l0 0q0-39.006552-39.006551-39.006552l-312.052415 0q-39.006552 0-39.006552 39.006552l0 0q0 39.006552 39.006552 39.006552ZM364.71126 599.862258m39.006552 0l234.039311 0q39.006552 0 39.006552-39.006552l0 0q0-39.006552-39.006552-39.006552l-234.039311 0q-39.006552 0-39.006552 39.006552l0 0q0 39.006552 39.006552 39.006552Z"  horiz-adv-x="1092" />
      
      <glyph glyph-name="pigaidabianjilubiao-icon" unicode="&#59234;" d="M652.701315 749.734821a141.01832 141.01832 0 1 1-281.749141 0h-70.437285v-73.168526h422.695585V749.734821z m-211.38373 0a70.50916 70.50916 0 1 0 140.946445 0z m0 0M833.107014 749.734821h-56.709202v-73.168526h28.390538a39.890503 39.890503 0 0 0 37.806135-41.759248v-647.807398a39.962378 39.962378 0 0 0-37.806135-41.759248H218.937013a39.962378 39.962378 0 0 0-37.806134 41.759248V634.807047a39.890503 39.890503 0 0 0 37.806134 41.759248h28.390539V749.734821h-56.709202A79.924756 79.924756 0 0 1 115.00608 666.144451v-710.482206a79.852881 79.852881 0 0 1 75.61227-83.518495h642.560539a79.924756 79.924756 0 0 1 75.612269 83.590369V666.216326a79.924756 79.924756 0 0 1-75.612269 83.59037z m0 0M300.443015 91.577455h422.695585a36.584263 36.584263 0 0 1 0 73.096652H300.443015a36.584263 36.584263 0 0 1 0-73.096652z m0 0M300.443015 274.355022h422.695585a36.584263 36.584263 0 0 1 0 73.096652H300.443015a36.584263 36.584263 0 0 1 0-73.096652z m0 0M300.443015 457.204464h422.695585a36.584263 36.584263 0 0 1 0 73.096652H300.443015a36.584263 36.584263 0 0 1 0-73.096652z m0 0"  horiz-adv-x="1024" />
      
      <glyph glyph-name="a-wenxianyuedusanwenpigai-icon" unicode="&#59235;" d="M80.604119 848.93398a127.129839 127.129839 0 0 0 88.962189 36.661031h746.636699a63.277944 63.277944 0 0 0 63.851894-63.277944v-876.995004a62.560507 62.560507 0 0 0-62.273533-62.775739H167.987947a124.403578 124.403578 0 0 0-124.04486 124.188347v753.308863A127.129839 127.129839 0 0 0 80.604119 849.005723z m88.531727-151.594441H918.068343v125.551477H169.135846a62.488764 62.488764 0 0 1-62.775739-62.775738v-0.502206a62.847482 62.847482 0 0 1 62.775739-62.273533zM575.133451 308.058216l69.59139 64.569331a30.849792 30.849792 0 0 0 42.400528 0.502206l73.106831-66.649898V634.061594H575.133451z m-403.199601-362.377435h709.043a39.100317 39.100317 0 0 1 38.741598 39.243805V634.276826h-96.638765v-398.679748a30.706304 30.706304 0 0 0-18.868594-28.267018 30.419329 30.419329 0 0 0-33.504308 5.23729L666.965389 308.058216l-101.517337-94.701686a30.491073 30.491073 0 0 0-34.006515-6.313445 31.423741 31.423741 0 0 0-18.868593 28.69748V634.276826H169.494565a124.403578 124.403578 0 0 0-63.349689 16.716282v-639.379865a66.004205 66.004205 0 0 1 65.932462-65.932462zM73.214517 856.395325A137.604419 137.604419 0 0 0 169.494565 895.997848h746.708442a73.752525 73.752525 0 0 0 74.326474-73.752525v-876.995004a73.035088 73.035088 0 0 0-72.8916-73.250319H167.916203A134.806415 134.806415 0 0 0 33.468507 7.093389V760.402252A137.604419 137.604419 0 0 0 72.999286 856.682299z m14.348741-14.850947a116.655258 116.655258 0 0 1-33.504309-81.572588V7.093389a113.928998 113.928998 0 0 1 113.570279-114.072485h750.008653a52.085927 52.085927 0 0 1 51.798952 52.301159V822.173579a52.875108 52.875108 0 0 1-53.377313 52.875108H169.422821A116.655258 116.655258 0 0 1 87.778489 841.544378z m29.27143-29.486661a73.035088 73.035088 0 0 0 51.942439 21.523111h759.550565v-146.500638H169.064102A73.322063 73.322063 0 0 0 95.813783 759.828303V760.402252a73.035088 73.035088 0 0 0 21.523111 51.870696z m51.942439 0.430462a52.014183 52.014183 0 0 1-52.301158-52.301158V759.684815a52.444646 52.444646 0 0 1 52.301158-51.798952h738.601405V812.416436H169.064102z m-73.393806-143.487402l15.711871-9.183194a114.789922 114.789922 0 0 1 58.112398-15.353152h353.839934v-408.939097a20.949161 20.949161 0 0 1 20.949161-20.949161 19.873005 19.873005 0 0 1 14.34874 5.882984L666.534927 322.048238l111.27448-101.804312a19.944749 19.944749 0 0 1 21.523111-3.371954h0.502206a20.231724 20.231724 0 0 1 12.339916 18.509875v408.939097h117.731414v-660.042052a49.574898 49.574898 0 0 0-49.216179-49.718385H172.149081a76.478786 76.478786 0 0 0-76.407041 76.407042V669.216008z m20.949161-35.08267v-622.663583a55.529625 55.529625 0 0 1 55.457881-55.457881h709.042999a28.69748 28.69748 0 0 1 28.267019 28.697481V624.08922h-75.546118v-388.276911a41.970065 41.970065 0 0 0-69.878365-30.63456L666.534927 293.494245 572.263703 205.464723a40.965653 40.965653 0 0 0-44.9833-8.5375h-0.645694a41.970065 41.970065 0 0 0-24.966808 38.311136V624.08922h-332.173336a137.102213 137.102213 0 0 0-52.875108 10.331093z m447.96767 10.331093h206.191398v-361.803485L680.022742 365.811896a20.375211 20.375211 0 0 1-28.051787-0.358719L564.730615 284.167564V644.464431z m20.949161-20.949161V332.092356l51.94244 48.426998a41.324372 41.324372 0 0 0 56.60578 0.645694l55.744856-50.938028V623.587014h-164.293076z"  horiz-adv-x="1024" />
      
      <glyph glyph-name="keshezhongxin-icon" unicode="&#59236;" d="M1110.684496 348.640897L585.863262 104.754334a39.960186 39.960186 0 0 0-35.996524-0.80891L23.670356 348.80268a38.018801 38.018801 0 1 0 32.356426 68.676514L567.096535 179.57857l511.555099 237.738842a38.018801 38.018801 0 1 0 32.356426-68.676515zM55.784109 189.770844l511.069752-237.900624 511.555099 237.738842a38.018801 38.018801 0 1 0 32.356427-68.676514l-524.821234-244.210128a40.445533 40.445533 0 0 0-35.996524-0.80891l-525.791927 245.18082a38.018801 38.018801 0 1 0 32.356426 68.676514zM1133.738449 611.698643v2.507623a35.915633 35.915633 0 0 1-8.089106 20.141875l-0.647129 0.808911a40.930879 40.930879 0 0 1-14.641283 11.890987L585.216133 891.258166a40.445533 40.445533 0 0 1-36.077415 0.80891l-525.791927-245.099929a38.827712 38.827712 0 0 1-19.980093-51.123153 36.481871 36.481871 0 0 1 14.075045-15.692867 47.968402 47.968402 0 0 1 6.147721-3.559207l525.791927-244.857255a40.445533 40.445533 0 0 1 35.996524 0.80891l525.063907 243.967454a39.47484 39.47484 0 0 1 14.075046 10.758512l1.213366 1.375148a36.158306 36.158306 0 0 1 8.089106 20.46544 13.751481 13.751481 0 0 0 0 2.750296zM566.77297 407.125138L127.615375 611.698643 566.611188 816.272148l439.885615-204.573505z"  horiz-adv-x="1134" />
      
      <glyph glyph-name="biaodanzhongxin-icon" unicode="&#59237;" d="M899.680679 709.374513L431.098953 810.920734l-21.552338-65.060615L268.043813 327.32502a40.360183 40.360183 0 0 0-31.803824-32.288146 35.436241 35.436241 0 0 0-34.386876 16.144073 42.620353 42.620353 0 0 0-2.744493 40.360183l45.526287 135.368054L371.123721 862.420328A41.570989 41.570989 0 0 0 389.931566 890.107413a35.678402 35.678402 0 0 0 31.561663 2.905933l526.942551-113.008512a37.53497 37.53497 0 0 0 29.543654-19.69577 44.07332 44.07332 0 0 0 2.26017-37.53497c-59.975232-209.872952-126.488814-420.472388-201.800915-625.502118a674.49938 674.49938 0 0 0-59.975232-130.20195 191.226548 191.226548 0 0 0-156.43607-94.362108 206.482697 206.482697 0 0 0-110.344741 24.216109l-296.728066 144.489456a196.06977 196.06977 0 0 0-74.343457 55.939214 206.967019 206.967019 0 0 0-39.55298 143.843692 481.174103 481.174103 0 0 0 6.61907 55.293451l10.170767-3.874577c132.462121-57.957223 264.359199-116.479488 396.90204-173.790949a13.641742 13.641742 0 0 0 8.959961-14.287505 222.465329 222.465329 0 0 1 17.354879-100.900457 85.240707 85.240707 0 0 1 90.48753-50.127348 129.152586 129.152586 0 0 1 92.344099 74.182017 912.785901 912.785901 0 0 1 59.975232 148.364033c56.504256 159.422723 106.712324 321.509219 155.871027 484.322197 5.408265 16.144073 10.170766 32.288146 15.013988 49.481585z m0 0M644.20072 203.177097a38.422894 38.422894 0 0 0-51.418874-36.485606L426.175011 221.984942a40.360183 40.360183 0 0 0-26.718442 41.005946 38.422894 38.422894 0 0 0 33.821834 33.821834 53.356162 53.356162 0 0 0 20.180091 0l160.79497-53.356162a38.422894 38.422894 0 0 0 29.947256-38.422895z m65.060615 158.131197a36.485606 36.485606 0 0 0-10.412927-27.364204 37.131368 37.131368 0 0 0-27.364205-11.05869 44.961244 44.961244 0 0 0-16.144073 0L493.253635 378.178851a39.068657 39.068657 0 0 0-28.65573 48.43222 37.131368 37.131368 0 0 0 43.588998 28.009967c19.534329-5.246824 37.777131-12.350216 56.504256-18.242803l110.667622-36.485606a38.422894 38.422894 0 0 0 30.593019-37.777131z m69.015913 169.512769a37.131368 37.131368 0 0 0-41.651709-37.777131c-24.21611 4.520341-47.544296 11.704453-70.953202 18.242803l-104.129272 28.009967a37.777131 37.777131 0 0 0-30.593019 34.467596 37.131368 37.131368 0 0 0 18.888566 37.131369 42.943235 42.943235 0 0 0 35.759122 0l117.771014-31.238782 45.526287-12.350216a39.71442 39.71442 0 0 0 29.301493-37.777132z m-386.569834-39.71442a41.651709 41.651709 0 0 0 41.651709-41.651709 40.360183 40.360183 0 0 0-39.068657-39.068657 41.651709 41.651709 0 0 0-43.588998 39.068657 39.068657 39.068657 0 0 0 39.068657 39.068657z m65.060615 83.303418a41.005946 41.005946 0 0 0-42.297472 39.71442 36.485606 36.485606 0 0 0 11.704454 27.364204 38.422894 38.422894 0 0 0 27.364204 11.058691 40.360183 40.360183 0 0 0 42.943235-40.360184 36.485606 36.485606 0 0 0-39.714421-37.131368z m-127.538178-233.68546a40.360183 40.360183 0 0 0 42.297472-39.71442 38.422894 38.422894 0 0 0-11.05869-27.364204 41.005946 41.005946 0 0 0-26.718442-11.058691 41.651709 41.651709 0 0 0-44.880523 39.714421 39.068657 39.068657 0 0 0 40.360183 38.422894z m0 0"  horiz-adv-x="1024" />
      
      <glyph glyph-name="xinjian-icon" unicode="&#59238;" d="M731.372669 749.725466a146.274534 146.274534 0 0 0 146.274534-146.274534v-585.098135a146.274534 146.274534 0 0 0-146.274534-146.274533H146.352797A146.274534 146.274534 0 0 0 0.078264 18.352797V603.372669A146.274534 146.274534 0 0 0 146.352797 749.647203h585.019872z m0-73.098135H146.352797a73.098135 73.098135 0 0 1-72.628554-64.56741l-0.547844-8.530725v-585.176399a73.098135 73.098135 0 0 1 64.56741-72.628554l8.530725-0.547844h585.019871a73.098135 73.098135 0 0 1 72.628554 64.56741l0.547845 8.530725V603.294405a73.098135 73.098135 0 0 1-64.567411 72.628554l-8.530724 0.547845zM768 896a255.921736 255.921736 0 0 0 255.608682-241.912565V128.156527a36.549068 36.549068 0 0 0-72.55029-6.574136l-0.547845 6.574136V640.078264A182.823601 182.823601 0 0 1 779.661266 822.510547H255.765209a36.549068 36.549068 0 0 0-6.574136 72.550291l6.574136 0.547844zM256 347.529196h365.647203a32.322837 32.322837 0 0 0 36.549067-36.549068 32.322837 32.322837 0 0 0-36.549067-36.549067H256a32.322837 32.322837 0 0 0-36.549068 36.549067 32.322837 32.322837 0 0 0 36.549068 36.549068zM475.294405 493.80373v-365.647203a32.322837 32.322837 0 0 0-36.549067-36.549068 32.322837 32.322837 0 0 0-36.549068 36.549068V493.80373a32.322837 32.322837 0 0 0 36.549068 36.549067 32.322837 32.322837 0 0 0 36.549067-36.549067z"  horiz-adv-x="1024" />
      
      <glyph glyph-name="dazuoyepigai-icon" unicode="&#59239;" d="M68.623276 350.038466v373.061758A101.013645 101.013645 0 0 0 156.938473 826.696604a261.14323 261.14323 0 0 0 53.591756 0.573941 32.714646 32.714646 0 0 0 28.697058-34.866925 33.790786 33.790786 0 0 0-32.140705-32.499419c-11.335338-0.358713-22.598933 0-33.934271 0a34.43647 34.43647 0 0 1-35.871323-36.660492v-746.123515a34.43647 34.43647 0 0 1 36.732234-36.803977H850.618114a34.651698 34.651698 0 0 1 37.090948 37.951859V720.087033a41.036793 41.036793 0 0 1-7.174265 26.114323 33.503816 33.503816 0 0 1-26.903492 13.487617h-33.934271a34.292985 34.292985 0 0 0-34.795184 33.647301 33.790786 33.790786 0 0 0 33.216845 34.292985h0.717427a307.488979 307.488979 0 0 0 58.255028-3.156677 100.439704 100.439704 0 0 0 78.414712-95.417718v-750.284589a101.372358 101.372358 0 0 0-60.335565-97.498255 95.345976 95.345976 0 0 0-42.543389-9.183059H171.645715A102.089785 102.089785 0 0 0 68.623276-26.753909V350.038466zM512.279797 691.461717H379.268932a67.940285 67.940285 0 0 0-71.742646 71.742646V825.548722a67.653315 67.653315 0 0 0 70.307793 70.307793h268.747951a67.653315 67.653315 0 0 0 70.092564-70.020822v-65.859749a67.366344 67.366344 0 0 0-66.146719-68.585969h-1.147882c-45.628323-0.286971-91.328388 0.143485-137.100196 0.071742zM648.23211 827.342288H376.112255V759.688973h271.97637V826.983575zM511.490628 281.595982H311.400389a37.16269 37.16269 0 0 0-26.186066 8.465633 32.786389 32.786389 0 0 0-10.330941 35.297381 32.140705 32.140705 0 0 0 27.549176 24.177272 55.31358 55.31358 0 0 0 7.748206 0.573941h403.624125a34.149499 34.149499 0 0 0 9.685257-67.438087 73.320984 73.320984 0 0 0-12.698449-0.860912H511.490628z m0-170.460526H307.956742a34.006014 34.006014 0 0 0-27.11872 55.170095 33.288588 33.288588 0 0 0 27.764404 12.913676h405.776404a33.790786 33.790786 0 0 0 35.871323-34.006014 33.36033 33.36033 0 0 0-32.642904-34.006014H511.921084z m-67.438087 409.435279h135.808828a34.006014 34.006014 0 1 0 0-68.012028H308.45894a34.077757 34.077757 0 1 0 0 68.012028z"  horiz-adv-x="1024" />
      
      <glyph glyph-name="keshepeizhi-icon" unicode="&#59241;" d="M234.68248 814.423799h98.686614v-853.035736h-98.686614zM501.633322 805.904091h147.674934v-131.629484a73.553477 73.553477 0 0 0-143.060092 0zM881.257298-117.277238H142.385646A112.318147 112.318147 0 0 0 29.286527-5.669067V769.340345A112.318147 112.318147 0 0 0 142.385646 880.948516h738.871652a112.318147 112.318147 0 0 0 113.596103-111.608171v-771.672526a112.318147 112.318147 0 0 0-113.09912-115.229047zM142.030659 819.890611a52.254207 52.254207 0 0 1-36.492748-14.199513 50.834256 50.834256 0 0 1-15.051484-36.492748v-771.530531a47.923356 47.923356 0 0 1 15.051484-35.498782 52.964183 52.964183 0 0 1 36.492748-15.051484h739.226639a51.544232 51.544232 0 0 1 51.544232 50.834256V769.340345a50.834256 50.834256 0 0 1-51.544232 50.834256z m0 0M881.612286-127.99787H142.385646A126.659655 126.659655 0 0 0 15.016016-2.048191V769.340345A127.795616 127.795616 0 0 0 142.385646 896h739.22664A127.795616 127.795616 0 0 0 1008.981916 769.340345v-771.388536a126.659655 126.659655 0 0 0-127.36963-125.949679z m0 994.675876H142.385646A98.047636 98.047636 0 0 1 43.628035 769.340345v-771.388536a98.047636 98.047636 0 0 1 98.757611-97.337661h739.22664a98.047636 98.047636 0 0 1 98.757612 97.337661V769.340345A98.047636 98.047636 0 0 1 881.612286 866.678006z m0-933.830963H142.385646a62.97484 62.97484 0 0 0-46.503404 21.299269 63.897808 63.897808 0 0 0-19.311338 45.793429V769.340345a66.524718 66.524718 0 0 0 19.311338 43.663502 65.104766 65.104766 0 0 0 46.503404 18.601362h739.22664a65.104766 65.104766 0 0 0 65.814742-65.104766v-768.548634a65.814742 65.814742 0 0 0-65.814742-65.175764zM142.385646 806.117084a36.492748 36.492748 0 0 1-26.482091-10.720633 34.362821 34.362821 0 0 1-10.720632-25.772115v-771.388537a36.634743 36.634743 0 0 1 37.202723-36.492748h739.22664a36.492748 36.492748 0 0 1 26.482092 10.720632 39.332651 39.332651 0 0 1 10.720632 25.772116V769.340345a36.492748 36.492748 0 0 1-37.202724 36.492748z"  horiz-adv-x="1024" />
      
      <glyph glyph-name="kechengguanli-icon" unicode="&#59242;" d="M876.5617 896a73.122131 73.122131 0 0 0 72.977048-67.681496V127.927458a73.122131 73.122131 0 0 0-67.681497-72.977047H226.804829a36.706149 36.706149 0 0 0-8.777558 1.088127v-1.523378a66.375744 66.375744 0 0 1-73.122131-54.841598 64.489657 64.489657 0 0 1 66.593369-54.623973l2.248796 0.435251H913.485475a36.270898 36.270898 0 0 0 4.279966-72.541797H218.607606v-0.870501A137.829413 137.829413 0 0 0 72.000635-0.036271V749.683196A146.316804 146.316804 0 0 0 210.990717 896h7.25418z m0-73.122131H218.244897a73.122131 73.122131 0 0 1-72.977048-67.681496v-644.316237a162.058373 162.058373 0 0 0 65.287617 16.829697h7.689431v-0.652876a36.270898 36.270898 0 0 0 4.497591 0.797959h653.819212zM547.439569 530.316804a36.270898 36.270898 0 0 0 4.279966-72.541797H291.439569a36.270898 36.270898 0 0 0-4.279966 72.541797h4.279966zM730.317438 713.194673a36.270898 36.270898 0 0 0 4.279966-72.541797H291.439569a36.270898 36.270898 0 0 0-4.279966 72.541797h4.279966z"  horiz-adv-x="1024" />
      
      <glyph glyph-name="keshe-icon" unicode="&#59227;" d="M512 896A512 512 0 1 0 0 384 512 512 0 0 0 512 896zM669.909333 134.144H357.376A58.410667 58.410667 0 0 0 298.666667 191.957333V582.186667A58.410667 58.410667 0 0 0 357.376 640h309.802667a59.178667 59.178667 0 0 0 61.44-55.082667V192a58.410667 58.410667 0 0 0-58.709334-57.813333zM357.376 612.864a31.232 31.232 0 0 1-31.616-30.72v-391.125333a31.232 31.232 0 0 1 31.616-30.72h311.466667a31.232 31.232 0 0 1 31.616 30.72v392.96a30.890667 30.890667 0 0 1-33.408 28.885333zM388.096 151.338667H337.493333a25.6 25.6 0 0 0-25.301333 26.197333V597.546667a26.624 26.624 0 0 0 25.301333 26.197333h50.602667z m303.488 0h-277.333333V621.738667h149.930666v-159.872l48.768 52.394666 50.602667-50.602666V623.744h25.301333a25.6 25.6 0 0 0 25.301334-26.197333v-420.010667a21.973333 21.973333 0 0 0-22.570667-26.197333z"  horiz-adv-x="1024" />
      
      <glyph glyph-name="bishi-jishi-icon" unicode="&#59226;" d="M512 896A512 512 0 1 0 0 384 512 512 0 0 0 512 896zM370.730667 246.869333h307.2A47.402667 47.402667 0 0 1 725.333333 294.4V592.597333A47.402667 47.402667 0 0 1 677.930667 640H346.069333A47.402667 47.402667 0 0 1 298.666667 592.597333v-402.986666a47.402667 47.402667 0 0 1 47.402666-47.402667h343.722667a35.541333 35.541333 0 0 1 35.541333 35.541333v15.744a17.792 17.792 0 1 1-35.541333 0v-3.925333a11.861333 11.861333 0 0 0-11.861333-11.861333H368.810667a34.602667 34.602667 0 0 0-34.602667 36.394666 35.541333 35.541333 0 0 0 36.522667 32.768z m161.536 271.914667l15.402666 15.402667a23.722667 23.722667 0 0 0 33.408 0l19.541334-19.541334a23.722667 23.722667 0 0 0 0-33.536l-15.274667-15.274666zM407.936 354.133333l3.797333 40.192a11.861333 11.861333 0 0 0 3.456 7.210667l100.266667 100.394667 53.12-53.12-100.266667-100.394667a11.861333 11.861333 0 0 0-7.338666-3.328l-40.064-3.925333h-1.194667a11.861333 11.861333 0 0 0-11.733333 12.8z"  horiz-adv-x="1024" />
      
      <glyph glyph-name="kechengdagangpeizhi-icon" unicode="&#59225;" d="M512 896A512 512 0 1 0 0 384 512 512 0 0 0 512 896zM662.101333 180.906667h-210.389333a28.714667 28.714667 0 0 0-28.416 24.576 4.778667 4.778667 0 0 1-4.736 4.266666H336.938667a38.4 38.4 0 0 0-38.4 38.4V621.184a19.2 19.2 0 0 0 38.4 0v-95.616a9.557333 9.557333 0 0 1 9.557333-9.557333H418.56a4.778667 4.778667 0 0 1 4.736 4.266666 28.714667 28.714667 0 0 0 28.416 24.618667h210.389333a28.714667 28.714667 0 0 0 28.714667-28.714667v-38.4a28.714667 28.714667 0 0 0-28.714667-28.714666h-210.389333a28.714667 28.714667 0 0 0-28.416 24.618666 4.778667 4.778667 0 0 1-4.736 4.266667H346.453333a9.557333 9.557333 0 0 1-9.557333-9.557333v-76.544a9.557333 9.557333 0 0 1 9.557333-9.557334h72.064a4.778667 4.778667 0 0 1 4.736 4.266667 28.714667 28.714667 0 0 0 28.416 24.576h210.389334a28.714667 28.714667 0 0 0 28.714666-28.714667v-38.4a28.714667 28.714667 0 0 0-28.714666-28.714666h-210.389334a28.714667 28.714667 0 0 0-28.416 24.576 4.778667 4.778667 0 0 1-4.736 4.266666H346.453333a9.557333 9.557333 0 0 1-9.557333-9.6v-76.501333a9.557333 9.557333 0 0 1 9.557333-9.6h72.064a4.778667 4.778667 0 0 1 4.736 4.266667 28.714667 28.714667 0 0 0 28.416 24.576h210.389334a28.714667 28.714667 0 0 0 28.714666-28.714667v-38.4a28.714667 28.714667 0 0 0-28.672-29.269333z"  horiz-adv-x="1024" />
      
      <glyph glyph-name="kechengpeizhi-icon" unicode="&#59224;" d="M512 896A512 512 0 1 0 0 384 512 512 0 0 0 512 896zM488.149333 388.053333a33.749333 33.749333 0 1 1 33.749334 33.749334 33.749333 33.749333 0 0 1-33.749334-33.749334zM668.885333 640H460.8v-138.837333l-30.464 37.376-30.464-37.376V640h-24.618667a34.133333 34.133333 0 0 1-33.877333-33.877333v-438.058667a34.133333 34.133333 0 0 1 33.877333-33.877333h293.632a34.133333 34.133333 0 0 1 33.877334 33.877333V606.122667A33.877333 33.877333 0 0 1 668.885333 640zM610.133333 351.786667l-13.269333-22.997334a6.485333 6.485333 0 0 0-8.874667-2.389333l-13.141333 7.637333a6.4 6.4 0 0 1-7.210667-0.554666 73.344 73.344 0 0 0-21.333333-11.690667 6.442667 6.442667 0 0 1-4.266667-6.101333v-15.914667a6.485333 6.485333 0 0 0-6.485333-6.485333h-26.496a6.485333 6.485333 0 0 0-6.485333 6.485333V315.733333a6.4 6.4 0 0 1-4.266667 6.101334 72.874667 72.874667 0 0 0-21.632 11.690666 6.4 6.4 0 0 1-7.210667 0.512l-12.8-7.466666a6.485333 6.485333 0 0 0-8.874666 2.389333l-13.269334 22.997333a6.485333 6.485333 0 0 0 2.389334 8.874667l10.368 6.058667a6.613333 6.613333 0 0 1 3.114666 7.168 72.533333 72.533333 0 0 0-2.218666 17.962666 70.272 70.272 0 0 0 0.725333 10.368 6.570667 6.570667 0 0 1-3.157333 6.528l-8.917334 5.12a6.485333 6.485333 0 0 0-2.389333 8.874667l13.269333 22.912a6.485333 6.485333 0 0 0 8.874667 2.389333l6.656-3.84a6.485333 6.485333 0 0 1 7.68 0.896 74.965333 74.965333 0 0 0 27.392 16.725334 6.528 6.528 0 0 1 4.266667 6.144v6.698666a6.485333 6.485333 0 0 0 6.485333 6.485334h26.496a6.485333 6.485333 0 0 0 6.485333-6.485334v-6.869333a6.4 6.4 0 0 1 4.266667-6.101333 74.666667 74.666667 0 0 0 27.136-16.64 6.4 6.4 0 0 1 7.68-0.896l6.997333 4.010666a6.485333 6.485333 0 0 0 8.874667-2.389333l13.269333-22.997333a6.485333 6.485333 0 0 0-2.389333-8.874667l-9.301333-5.418667a6.357333 6.357333 0 0 1-3.157334-6.485333 76.8 76.8 0 0 0 0.725334-10.282667 72.832 72.832 0 0 0-2.133334-17.664 6.570667 6.570667 0 0 1 3.029334-7.125333l10.88-6.314667a6.528 6.528 0 0 0 2.218666-9.002666z"  horiz-adv-x="1024" />
      
      <glyph glyph-name="chenggong1" unicode="&#58893;" d="M508.10368 841.3952c-237.06624 0-429.22496-192.16384-429.22496-429.22496 0-237.05088 192.15872-429.22496 429.22496-429.22496 237.05088 0 429.22496 192.17408 429.22496 429.22496 0 237.06112-192.16896 429.22496-429.22496 429.22496z m-3.072-802.57024c-208.7424 0-377.95328 169.22112-377.95328 377.96352 0 208.73728 169.21088 377.95328 377.95328 377.95328 208.74752 0 377.9584-169.216 377.9584-377.95328 0-208.7424-169.21088-377.96352-377.9584-377.96352zM507.65824 412.69248v-1.03424l0.87552 0.512-0.87552 0.52224zM506.81344 410.7008l2.5856 1.46944-2.5856 1.47456v-2.944zM770.55488 582.35904a28.0576 28.0576 0 0 1-39.64416 0l-287.06304-285.00992-158.59712 158.5408a28.04224 28.04224 0 0 1-39.61344 0 28.01664 28.01664 0 0 1 0-39.62368l174.30528-174.27968a27.79136 27.79136 0 0 1 19.77344-8.22272c1.37216 0 2.73408 0.14848 4.13696 0.26624 1.3056-0.2048 2.70848-0.26624 4.09088-0.26624a27.81184 27.81184 0 0 1 19.7888 8.22272l302.78144 300.7232a27.97568 27.97568 0 0 1 0.04096 39.64928z"  horiz-adv-x="1024" />
      
      <glyph glyph-name="qingjiashenqing-daiban-05" unicode="&#59240;" d="M464.213333-26.794667C226.986667-26.794667 34.133333 166.058667 34.133333 403.285333s192.853333 430.08 430.08 430.08c170.154667 0 324.778667-100.693333 393.557334-256.341333 14.336-32.256 24.576-66.389333 30.378666-101.205333 2.389333-13.994667-6.997333-27.136-20.992-29.525334-13.824-2.389333-27.136 6.997333-29.525333 20.992-5.290667 30.72-14.165333 60.586667-26.794667 89.088A379.272533 379.272533 0 0 1 464.213333 782.165333C255.317333 782.165333 85.333333 612.181333 85.333333 403.285333s169.984-378.88 378.88-378.88c14.165333 0 25.6-11.434667 25.6-25.6s-11.434667-25.6-25.6-25.6zM297.301333 320.512c-11.434667 0-21.845333 7.68-24.746666 19.285333-3.413333 13.653333 4.949333 27.648 18.602666 31.061334l159.232 40.106666V566.613333c0 14.165333 11.434667 25.6 25.6 25.6s25.6-11.434667 25.6-25.6v-175.445333c0-11.776-8.021333-22.016-19.285333-24.917333l-178.688-44.885334c-2.218667-0.682667-4.266667-0.853333-6.314667-0.853333zM757.76-65.365333c-128 0-232.106667 104.106667-232.106667 232.106666s104.106667 232.106667 232.106667 232.106667S989.866667 294.741333 989.866667 166.741333s-104.106667-232.106667-232.106667-232.106666z m0 413.013333c-99.669333 0-180.906667-81.066667-180.906667-180.906667s81.066667-180.906667 180.906667-180.906666c99.669333 0 180.906667 81.066667 180.906667 180.906666s-81.066667 180.906667-180.906667 180.906667zM803.328 141.141333h-91.136c-14.165333 0-25.6 11.434667-25.6 25.6s11.434667 25.6 25.6 25.6h91.136c14.165333 0 25.6-11.434667 25.6-25.6s-11.434667-25.6-25.6-25.6z"  horiz-adv-x="1024" />
      
      <glyph glyph-name="biyanjing" unicode="&#59649;" d="M469.333333 214.613333c-36.053333 2.432-71.253333 8.533333-104.96 17.92l-69.802666-149.674666a42.368 42.368 0 0 0-56.533334-20.266667 42.666667 42.666667 0 0 0-20.821333 56.32l66.986667 143.658667a451.712 451.712 0 0 0-148.906667 112.682666 388.693333 388.693333 0 0 0-70.570667 119.338667 42.666667 42.666667 0 1 0 80.128 29.354667 303.445333 303.445333 0 0 1 55.210667-93.098667C270.634667 348.586667 383.018667 298.666667 505.728 298.666667c122.752 0 235.136 49.962667 305.706667 132.181333a303.445333 303.445333 0 0 1 55.210666 93.098667 42.666667 42.666667 0 0 0 80.128-29.354667 388.693333 388.693333 0 0 0-70.570666-119.338667 423.68 423.68 0 0 0-18.773334-20.48l104.362667-104.362666a42.666667 42.666667 0 0 0-0.298667-60.032 42.368 42.368 0 0 0-60.032-0.298667l-109.653333 109.653333c-20.48-14.08-42.24-26.581333-65.024-37.418666l66.901333-143.36a42.666667 42.666667 0 0 0-20.821333-56.362667 42.368 42.368 0 0 0-56.533333 20.266667l-69.717334 149.546666a520.533333 520.533333 0 0 0-91.946666-16.810666v-130.645334A42.666667 42.666667 0 0 0 512 42.666667c-23.722667 0-42.666667 18.944-42.666667 42.24v129.706666zM176.128 371.626667a42.368 42.368 0 0 0 60.032-0.256 42.666667 42.666667 0 0 0 0.298667-60.074667l-121.216-121.216a42.368 42.368 0 0 0-60.074667 0.298667 42.666667 42.666667 0 0 0-0.298667 60.032l121.258667 121.258666z"  horiz-adv-x="1024" />
      
      <glyph glyph-name="yanjing_xianshi" unicode="&#60230;" d="M512 128c-183.466667 0-328.533333 85.333333-426.666667 256 98.133333 170.666667 243.2 256 426.666667 256s328.533333-85.333333 426.666667-256c-98.133333-170.666667-243.2-256-426.666667-256z m8.533333 426.666667c-128 0-256-55.466667-328.533333-170.666667 72.533333-115.2 200.533333-170.666667 328.533333-170.666667s238.933333 55.466667 311.466667 170.666667c-72.533333 115.2-183.466667 170.666667-311.466667 170.666667z m-8.533333-298.666667c-72.533333 0-128 55.466667-128 128s55.466667 128 128 128 128-55.466667 128-128-55.466667-128-128-128z m0 85.333333c25.6 0 42.666667 17.066667 42.666667 42.666667s-17.066667 42.666667-42.666667 42.666667-42.666667-17.066667-42.666667-42.666667 17.066667-42.666667 42.666667-42.666667z"  horiz-adv-x="1024" />
      
      <glyph glyph-name="chenggong" unicode="&#59208;" d="M725.674667 565.703111h-53.589334a36.408889 36.408889 0 0 1-29.582222-15.189333l-179.655111-249.173334-81.408 112.924445a36.522667 36.522667 0 0 1-29.582222 15.189333h-53.589334a9.159111 9.159111 0 0 1-7.452444-14.506666l142.222222-197.461334a36.352 36.352 0 0 1 59.107556 0l240.696889 333.710222a9.102222 9.102222 0 0 1-7.168 14.506667zM512-128a512 512 0 1 0 512 512 512.568889 512.568889 0 0 0-512-512zM512 809.130667A425.130667 425.130667 0 1 1 937.130667 384 425.642667 425.642667 0 0 1 512 809.130667z"  horiz-adv-x="1024" />
      
      <glyph glyph-name="jiantouicon" unicode="&#59209;" d="M803.237932 377.554367a185.212121 185.212121 0 0 1-57.953654 135.187166L333.39123 879.629234A62.745098 62.745098 0 0 1 243.266453 873.183601a62.745098 62.745098 0 0 1 6.673797-90.124777l411.721925-373.333334a49.16934 49.16934 0 0 0 12.891265-32.171123 55.614973 55.614973 0 0 0-19.336898-38.616756L243.266453-15.058824a63.885918 63.885918 0 1 1 83.679144-96.57041l411.950089 353.996435a154.010695 154.010695 0 0 1 64.342246 135.187166z"  horiz-adv-x="1024" />
      
      <glyph glyph-name="shouyeicon" unicode="&#59210;" d="M512 896A512 512 0 1 0 0 384 512 512 0 0 0 512 896zM717.354667 416.042667l-187.136 174.08a25.6 25.6 0 0 1-35.669334 0l-187.136-174.08a27.946667 27.946667 0 0 1-8.533333-19.157334v-193.237333a27.136 27.136 0 0 1 26.965333-26.965333h130.56v133.162666a55.722667 55.722667 0 0 0 111.402667 0v-134.058666h130.56a27.136 27.136 0 0 1 26.965333 26.965333V396.8a23.808 23.808 0 0 1-7.978666 19.242667z"  horiz-adv-x="1024" />
      
      <glyph glyph-name="kechengshejiicon" unicode="&#59211;" d="M512 896A512 512 0 1 0 0 384 512 512 0 0 0 512 896zM276.949333 222.634667a33.834667 33.834667 0 0 0-15.104 28.16V510.122667h-49.066666a23.637333 23.637333 0 0 1-23.637334-23.637334v-307.2a23.637333 23.637333 0 0 1 23.637334-23.637333h165.418666zM444.245333 137.557333l-146.602666 97.365334a33.664 33.664 0 0 0-15.104 28.16V601.941333a33.792 33.792 0 0 0 52.565333 28.16l105.898667-70.144a124.842667 124.842667 0 0 0 55.808-103.978666v-290.133334a33.792 33.792 0 0 0-33.834667-33.834666 33.152 33.152 0 0 0-18.730667 5.546666M747.178667 222.634667a33.834667 33.834667 0 0 1 15.104 28.16V510.122667h49.066666a23.637333 23.637333 0 0 0 23.637334-23.637334v-307.2a23.637333 23.637333 0 0 0-23.637334-23.637333h-165.418666zM580.053333 137.557333l146.56 97.365334a33.664 33.664 0 0 1 15.104 28.16V601.941333a33.792 33.792 0 0 1-52.565333 28.16l-105.856-70.144a124.842667 124.842667 0 0 1-55.808-103.978666v-290.133334a34.133333 34.133333 0 0 1 52.565333-28.288"  horiz-adv-x="1024" />
      
      <glyph glyph-name="shangchuan" unicode="&#59212;" d="M604.411589 787.228998a45.782429 45.782429 0 0 1-46.386154-44.977464v-629.483248a46.386154 46.386154 0 0 1 92.772307 0V742.251534a45.681809 45.681809 0 0 1-46.386153 44.977464z m0 108.771002L293.694794 589.308034a44.071877 44.071877 0 0 1 9.257106-62.988573 47.593602 47.593602 0 0 1 55.643261 0l245.816428 242.797806 245.816428-237.062425a45.581188 45.581188 0 0 1 62.887952-1.911794l2.012415 1.911794a43.16629 43.16629 0 0 1 0 62.082987z m510.147069-1022.507795H94.264519a78.987268 78.987268 0 0 0-92.772307 92.772308V139.73464a46.386154 46.386154 0 1 0 92.772307 0V-33.735487h1020.39476V139.73464a46.386154 46.386154 0 0 0 92.772307 0V-33.735487a97.602102 97.602102 0 0 0-92.772307-92.772308z"  horiz-adv-x="1207" />
      
      <glyph glyph-name="fanhui" unicode="&#59213;" d="M499.782228-12.841255q-86.391498 91.687185-173.186905 182.925583c-66.375598 69.876137-132.840953 139.617637-201.954152 212.186496 16.515362 18.714418 29.799457 34.646357 43.981126 49.680721q162.236502 171.661029 324.697398 343.097665a242.344982 242.344982 0 0 1 32.626815 38.32641 51.655384 51.655384 0 0 1-4.757142 65.388266 45.955789 45.955789 0 0 1-66.555113 5.430323 245.127462 245.127462 0 0 1-31.41509-30.562395Q232.529567 652.575236 42.064362 451.249386c-55.694467-58.970612-55.829103-74.498643-1.391239-132.167773q190.28569-201.505365 381.065045-402.427306a303.335136 303.335136 0 0 1 36.306868-34.421963 42.769401 42.769401 0 0 1 61.169669 5.879109 52.328565 52.328565 0 0 1 8.392317 65.074116 163.134076 163.134076 0 0 1-27.824794 34.018055zM1012.745774 435.990628c-10.142586 0.538544-20.330051 0-30.517517 0h-525.080795c-67.318051 0-93.616969-14.765092-91.417912-52.642716 2.243935-38.550804 23.067652-51.655384 94.245271-49.949993 87.468587 2.06442 175.026932 0.493666 262.540397 0.493666h91.597428c67.318051 0 134.366829-0.897574 201.505364 0.628301 41.288404 0.942453 62.830181 20.73396 61.753092 51.565627s-23.022773 47.66118-64.625328 49.905115z"  horiz-adv-x="1077" />
      
      <glyph glyph-name="tianxieicon" unicode="&#59214;" d="M902.803875 457.012621a41.560618 41.560618 0 0 1-41.614244-41.506991v-360.853417a99.906363 99.906363 0 0 0-99.906363-99.63823H183.134852a99.906363 99.906363 0 0 0-99.906363 99.691856V631.245457a99.906363 99.906363 0 0 0 99.906363 99.63823h361.711443a41.506991 41.506991 0 1 1 0 82.960356H183.134852A183.081225 183.081225 0 0 1 0 631.245457v-576.593244a183.081225 183.081225 0 0 1 183.134852-182.652213h578.148416a183.081225 183.081225 0 0 1 183.134852 182.652213V415.50563a41.560618 41.560618 0 0 1-41.614245 41.506991z m101.086149 318.273894L908.810055 870.09835a89.073789 89.073789 0 0 1-125.53988 0L335.70254 423.7105a88.376643 88.376643 0 0 1-23.542079-42.901283l-34.910919-153.372087a65.102697 65.102697 0 0 1 63.493899-79.313747 65.960723 65.960723 0 0 1 12.494998 1.179785l157.662216 30.567165a88.537523 88.537523 0 0 1 45.850746 24.292851l446.924116 445.797958a88.483896 88.483896 0 0 1 0 125.21812zM383.001205 318.066091l66.228855-65.638963-84.730034-16.409741z m562.006808 390.669808l-417.751244-416.571458-103.284839 102.373187 418.28751 416.946844a5.36266 5.36266 0 0 0 7.88311 0l95.079969-94.811835a5.36266 5.36266 0 0 0 0-7.883111z"  horiz-adv-x="1029" />
      
      <glyph glyph-name="biaodanzhongxinicon" unicode="&#59215;" d="M899.680679 709.374513L431.098953 810.920734l-21.552338-65.060615L268.043813 327.32502a40.360183 40.360183 0 0 0-31.803824-32.288146 35.436241 35.436241 0 0 0-34.386876 16.144073 42.620353 42.620353 0 0 0-2.744493 40.360183l45.526287 135.368054L371.123721 862.420328A41.570989 41.570989 0 0 0 389.931566 890.107413a35.678402 35.678402 0 0 0 31.561663 2.905933l526.942551-113.008512a37.53497 37.53497 0 0 0 29.543654-19.69577 44.07332 44.07332 0 0 0 2.26017-37.53497c-59.975232-209.872952-126.488814-420.472388-201.800915-625.502118a674.49938 674.49938 0 0 0-59.975232-130.20195 191.226548 191.226548 0 0 0-156.43607-94.362108 206.482697 206.482697 0 0 0-110.344741 24.216109l-296.728066 144.489456a196.06977 196.06977 0 0 0-74.343457 55.939214 206.967019 206.967019 0 0 0-39.55298 143.843692 481.174103 481.174103 0 0 0 6.61907 55.293451l10.170767-3.874577c132.462121-57.957223 264.359199-116.479488 396.90204-173.790949a13.641742 13.641742 0 0 0 8.959961-14.287505 222.465329 222.465329 0 0 1 17.354879-100.900457 85.240707 85.240707 0 0 1 90.48753-50.127348 129.152586 129.152586 0 0 1 92.344099 74.182017 912.785901 912.785901 0 0 1 59.975232 148.364033c56.504256 159.422723 106.712324 321.509219 155.871027 484.322197 5.408265 16.144073 10.170766 32.288146 15.013988 49.481585z m0 0M644.20072 203.177097a38.422894 38.422894 0 0 0-51.418874-36.485606L426.175011 221.984942a40.360183 40.360183 0 0 0-26.718442 41.005946 38.422894 38.422894 0 0 0 33.821834 33.821834 53.356162 53.356162 0 0 0 20.180091 0l160.79497-53.356162a38.422894 38.422894 0 0 0 29.947256-38.422895z m65.060615 158.131197a36.485606 36.485606 0 0 0-10.412927-27.364204 37.131368 37.131368 0 0 0-27.364205-11.05869 44.961244 44.961244 0 0 0-16.144073 0L493.253635 378.178851a39.068657 39.068657 0 0 0-28.65573 48.43222 37.131368 37.131368 0 0 0 43.588998 28.009967c19.534329-5.246824 37.777131-12.350216 56.504256-18.242803l110.667622-36.485606a38.422894 38.422894 0 0 0 30.593019-37.777131z m69.015913 169.512769a37.131368 37.131368 0 0 0-41.651709-37.777131c-24.21611 4.520341-47.544296 11.704453-70.953202 18.242803l-104.129272 28.009967a37.777131 37.777131 0 0 0-30.593019 34.467596 37.131368 37.131368 0 0 0 18.888566 37.131369 42.943235 42.943235 0 0 0 35.759122 0l117.771014-31.238782 45.526287-12.350216a39.71442 39.71442 0 0 0 29.301493-37.777132z m-386.569834-39.71442a41.651709 41.651709 0 0 0 41.651709-41.651709 40.360183 40.360183 0 0 0-39.068657-39.068657 41.651709 41.651709 0 0 0-43.588998 39.068657 39.068657 39.068657 0 0 0 39.068657 39.068657z m65.060615 83.303418a41.005946 41.005946 0 0 0-42.297472 39.71442 36.485606 36.485606 0 0 0 11.704454 27.364204 38.422894 38.422894 0 0 0 27.364204 11.058691 40.360183 40.360183 0 0 0 42.943235-40.360184 36.485606 36.485606 0 0 0-39.714421-37.131368z m-127.538178-233.68546a40.360183 40.360183 0 0 0 42.297472-39.71442 38.422894 38.422894 0 0 0-11.05869-27.364204 41.005946 41.005946 0 0 0-26.718442-11.058691 41.651709 41.651709 0 0 0-44.880523 39.714421 39.068657 39.068657 0 0 0 40.360183 38.422894z m0 0"  horiz-adv-x="1024" />
      
      <glyph glyph-name="kesheicon" unicode="&#59216;" d="M512 896A512 512 0 1 0 0 384 512 512 0 0 0 512 896zM570.624 579.413333l37.162667 15.146667a37.504 37.504 0 0 0 48.896-20.608q0.512-1.194667 0.896-2.389333l110.933333-336.512a37.504 37.504 0 0 0-21.333333-46.464l-37.205334-15.146667a37.461333 37.461333 0 0 0-48.853333 20.608q-0.512 1.194667-0.896 2.389333l-111.061333 336.512a37.504 37.504 0 0 0 21.461333 46.464z m-127.104 17.621334h37.504a37.504 37.504 0 0 0 37.504-37.504v-350.634667a37.504 37.504 0 0 0-37.504-37.504h-37.504a37.504 37.504 0 0 0-37.504 37.504V559.530667a37.504 37.504 0 0 0 37.504 37.418666z m-150.016 0h37.504a37.504 37.504 0 0 0 37.504-37.504v-350.634667a37.504 37.504 0 0 0-37.504-37.504h-37.376a37.504 37.504 0 0 0-37.504 37.504V559.530667a37.504 37.504 0 0 0 37.504 37.418666z"  horiz-adv-x="1024" />
      
      <glyph glyph-name="zhucechenggong" unicode="&#59217;" d="M512 384m-512 0a512 512 0 1 1 1024 0 512 512 0 1 1-1024 0ZM444.859733 179.2l-235.52 235.52 47.786667 47.786667 187.733333-184.32 310.613334 310.613333 47.786666-47.786667z"  horiz-adv-x="1024" />
      
      <glyph glyph-name="biyeshejiicon" unicode="&#59218;" d="M512 896A512 512 0 1 0 0 384 512 512 0 0 0 512 896zM308.650667 440.533333h390.954666v-169.429333H308.650667zM308.650667 271.104c0-43.178667 87.509333-78.165333 195.498666-78.165333s195.498667 34.986667 195.498667 78.165333-87.509333 78.165333-195.498667 78.165333-195.498667-34.986667-195.498666-78.165333zM492.202667 594.389333l-293.205334-129.024a13.738667 13.738667 0 0 1 0-24.789333l293.290667-129.024a35.712 35.712 0 0 1 23.424 0l293.290667 129.024a13.738667 13.738667 0 0 1 0 24.789333l-293.290667 129.024a25.002667 25.002667 0 0 1-23.509333 0zM754.389333 435.370667l-260.650666 44.330666a13.269333 13.269333 0 0 1-5.205334-25.984l250.24-41.685333v-192.896a13.056 13.056 0 1 1 26.069334 0v203.178667a14.122667 14.122667 0 0 1-10.453334 13.056zM725.76 219.050667a26.069333 26.069333 0 0 1 52.138667 0 26.069333 26.069333 0 1 1-52.138667 0zM790.912 179.925333a251.306667 251.306667 0 0 0-39.125333-78.165333 252.245333 252.245333 0 0 0-39.125334 78.165333 39.125333 39.125333 0 0 0 78.250667 0z"  horiz-adv-x="1024" />
      
      <glyph glyph-name="tianxiezipingbiaoicon" unicode="&#59219;" d="M109.426753 793.583044v-768.042392h371.939725v-102.416956H62.96608a49.00414 49.00414 0 0 0-46.460672 50.869349V844.791522a49.00414 49.00414 0 0 0 46.460672 50.869349h743.879451a49.00414 49.00414 0 0 0 46.460672-50.869349v-358.374566h-93.260474V793.583044z m93.260473-204.833913V691.166087h464.606723v-102.416956H202.43288z m0-204.833913V486.416956h232.472926v-102.416956zM561.231356 32.662361a547.015069 547.015069 0 0 0 430.269912 0 27.215102 27.215102 0 0 0 15.345587-25.434674v-109.538666a25.943368 25.943368 0 0 0-25.434674-25.434674H571.829137a25.943368 25.943368 0 0 0-25.434674 25.434674v109.538666a27.215102 27.215102 0 0 0 14.836893 25.434674z m91.98874 213.312138l-3.815201 33.9129a145.486339 145.486339 0 0 0 35.015069 113.353866 121.40818 121.40818 0 0 0 183.977479 0 145.486339 145.486339 0 0 0 35.099851-113.353866l-3.815201-33.9129a123.358172 123.358172 0 0 0-246.377215 0z"  horiz-adv-x="1024" />
      
      <glyph glyph-name="tuichuicon" unicode="&#59220;" d="M511.957124 895.911688a49.915695 49.915695 0 0 0 52.795446-52.795447v-316.836673a52.795446 52.795446 0 0 0-105.590893 0V843.116241A49.915695 49.915695 0 0 0 511.957124 895.911688zM511.957124-128a512.595789 512.595789 0 0 0-511.955844 510.227993 502.228683 502.228683 0 0 0 194.543221 397.981674 50.171673 50.171673 0 0 0 71.673818-10.175122A48.251838 48.251838 0 0 0 255.979202 703.928246a421.21167 421.21167 0 0 1-153.586753-321.444275A409.564675 409.564675 0 1 1 767.935046 703.928246a51.195584 51.195584 0 1 0 61.434701 81.656957 519.76317 519.76317 0 0 0 194.543221-403.165227A512.595789 512.595789 0 0 0 511.957124-128z"  horiz-adv-x="1024" />
      
      <glyph glyph-name="weitijiao" unicode="&#59221;" d="M710.187886 564.867657a9.186743 9.186743 0 0 1-9.128229 9.128229l-75.424914-0.351086-113.576229-135.402057-113.517714 135.285028-75.541943 0.468115a9.069714 9.069714 0 0 1-9.128228-9.245257 9.479314 9.479314 0 0 1 2.165028-5.851429L464.720457 381.659429l-148.6848-177.005715a9.537829 9.537829 0 0 1-2.165028-5.851428 9.186743 9.186743 0 0 1 9.128228-9.128229l75.541943 0.351086 113.517714 135.285028 113.4592-135.285028 75.424915-0.351086a9.069714 9.069714 0 0 1 9.128228 9.128229 9.479314 9.479314 0 0 1-2.165028 5.851428L559.630629 381.776457l148.509257 177.122743a9.186743 9.186743 0 0 1 2.048 5.968457zM512-128a512 512 0 1 0 512 512 512.585143 512.585143 0 0 0-512-512z m0 937.1648a425.1648 425.1648 0 1 1 425.1648-425.1648A425.632914 425.632914 0 0 1 512 809.1648z"  horiz-adv-x="1024" />
      
      <glyph glyph-name="xiazaimobanicon" unicode="&#59222;" d="M983.841729 582.629173A511.938751 511.938751 0 1 1 1023.959761 383.978563a508.059654 508.059654 0 0 1-40.118032 198.65061zM513.552233-34.198325A418.176888 418.176888 0 1 0 931.729121 383.978563 418.534173 418.534173 0 0 0 513.552233-34.198325zM686.478303 374.178738a48.79496 48.79496 0 0 1-68.751894-4.236382l-56.144828-63.494697V547.768339v4.542627 39.658665a48.080389 48.080389 0 1 1-96.211819 0v-34.55459a42.363825 42.363825 0 0 1 0.357285-5.104075v-245.40394l-56.144828 63.392615a48.692878 48.692878 0 0 1-72.937236-64.515511l140.515193-158.889864a46.855411 46.855411 0 0 1 16.435122-12.096659h0.357285l1.684345-0.663529a1.633304 1.633304 0 0 1 0.66353 0 6.482176 6.482176 0 0 1 1.3781-0.459367l0.918734-0.357285 1.122896-0.357286 1.122897-0.357285a3.317649 3.317649 0 0 1 1.020815 0l1.276019-0.357285h0.918733a5.716564 5.716564 0 0 1 1.378101 0h4.593668a3.164527 3.164527 0 0 0 1.020815 0h4.79783a3.164527 3.164527 0 0 1 1.020815 0h2.296834a5.665524 5.665524 0 0 1 1.378101 0h3.215567l1.276019 0.357285h1.020815l1.122897 0.357285 1.122896 0.357286 0.918734 0.357285 1.3781 0.459367a1.582263 1.582263 0 0 0 0.66353 0l1.735385 0.663529h0.357286a47.927267 47.927267 0 0 1 16.435122 12.096659l140.668315 158.889864a48.335593 48.335593 0 0 1-3.981179 68.394608z"  horiz-adv-x="1027" />
      
      <glyph glyph-name="shangchuanicon" unicode="&#59223;" d="M747.826609 236.060132v-333.734654a30.324367 30.324367 0 0 0-30.324367-30.324367h-60.704273a30.324367 30.324367 0 0 0-30.324367 30.324367v333.734654H529.391197a12.107531 12.107531 0 0 0-9.719349 19.438697l157.786679 210.382238a12.107531 12.107531 0 0 0 19.438697 0l157.786679-210.382238a12.107531 12.107531 0 0 0-9.719349-19.438697zM1033.020061 106.598411a182.05728 182.05728 0 0 1 54.928203 355.450456l-56.649916 17.883601-20.605019 55.816829a364.281178 364.281178 0 0 1-683.40904 0l-20.549479-55.76129-56.649916-17.883601a182.168358 182.168358 0 0 1 54.928203-355.450455 60.704273 60.704273 0 0 0 0-121.353008A303.410287 303.410287 0 0 0 213.484604 578.070117a485.634185 485.634185 0 0 0 911.175027 0 303.521365 303.521365 0 0 0-91.528492-592.769174 60.704273 60.704273 0 1 0 0 121.353008z"  horiz-adv-x="1336" />
      
    </font>
</defs>
</svg>
